<svg xmlns="http://www.w3.org/2000/svg" xmlns:xlink="http://www.w3.org/1999/xlink" zoomAndPan="magnify" preserveAspectRatio="xMidYMid meet" version="1.0" viewBox="50.55 298.63 996.69 407.14"><defs><g/></defs><g fill="#ec00ff" fill-opacity="0.302"><g transform="translate(54.435281, 474.178623)"><g><path d="M 87.667969 -34.320312 L 46.058594 -162.175781 L 13.335938 -162.175781 L 17.425781 -149.550781 L 17.425781 -56.902344 C 17.425781 -33.609375 15.648438 -17.960938 10.3125 -5.335938 L 10.3125 0 L 36.277344 0.179688 L 36.277344 -5.335938 C 30.941406 -17.960938 30.230469 -33.609375 30.230469 -56.902344 L 30.230469 -110.074219 L 65.972656 0 L 90.867188 0 L 124.121094 -116.296875 L 124.121094 0 L 157.730469 0 L 157.730469 -162.175781 L 124.300781 -162.175781 Z M 87.667969 -34.320312 "/></g></g></g><g fill="#ec00ff" fill-opacity="0.302"><g transform="translate(221.230677, 474.178623)"><g><path d="M 90.511719 -27.5625 C 81.621094 -14.402344 64.195312 -12.980469 40.011719 -12.980469 L 40.011719 -79.84375 C 51.746094 -79.488281 65.617188 -77.710938 77 -72.730469 L 82.15625 -72.730469 L 82.332031 -98.691406 L 77 -98.691406 C 65.617188 -94.070312 51.925781 -92.824219 40.011719 -92.648438 L 40.011719 -149.371094 C 62.417969 -149.195312 78.421875 -147.238281 86.957031 -134.792969 L 96.203125 -134.792969 L 91.402344 -162.175781 L 6.222656 -162.175781 L 6.222656 0 L 94.957031 0 L 99.761719 -27.5625 Z M 90.511719 -27.5625 "/></g></g></g><g fill="#ec00ff" fill-opacity="0.302"><g transform="translate(326.322438, 474.178623)"><g><path d="M 83.933594 -74.863281 C 101.183594 -81.265625 111.851562 -95.3125 111.851562 -116.652344 C 111.851562 -140.304688 98.515625 -162.175781 72.550781 -162.175781 L 6.222656 -162.175781 L 6.222656 0 L 40.011719 0 L 40.011719 -68.816406 L 49.613281 -68.816406 C 86.957031 -68.816406 66.683594 -23.828125 85.179688 0 L 118.253906 0 C 101.539062 -23.117188 114.519531 -66.683594 83.933594 -74.863281 Z M 40.011719 -149.371094 L 49.96875 -149.371094 C 70.417969 -149.371094 78.066406 -133.546875 78.066406 -116.652344 C 78.066406 -99.046875 70.417969 -81.621094 49.96875 -81.621094 L 40.011719 -81.621094 Z M 40.011719 -149.371094 "/></g></g></g><g fill="#ec00ff" fill-opacity="0.302"><g transform="translate(449.551859, 474.178623)"><g><path d="M 74.863281 1.957031 C 96.558594 1.957031 118.785156 -10.3125 132.125 -32.71875 L 124.300781 -56.191406 L 115.054688 -56.191406 C 109.183594 -26.140625 94.070312 -11.738281 80.199219 -11.738281 C 59.925781 -11.738281 40.011719 -36.808594 40.011719 -83.933594 C 40.011719 -130.347656 59.570312 -153.285156 77.886719 -153.285156 C 93.359375 -153.285156 107.941406 -137.28125 109.71875 -105.804688 L 119.144531 -105.804688 L 130.878906 -129.277344 C 125.722656 -152.21875 105.449219 -164.132812 78.242188 -164.132812 C 34.140625 -164.132812 6.222656 -137.101562 6.222656 -83.933594 C 6.222656 -26.671875 40.542969 1.957031 74.863281 1.957031 Z M 74.863281 1.957031 "/></g></g></g><g fill="#ec00ff" fill-opacity="0.302"><g transform="translate(586.651293, 474.178623)"><g><path d="M 90.511719 -27.5625 C 81.621094 -14.402344 64.195312 -12.980469 40.011719 -12.980469 L 40.011719 -79.84375 C 51.746094 -79.488281 65.617188 -77.710938 77 -72.730469 L 82.15625 -72.730469 L 82.332031 -98.691406 L 77 -98.691406 C 65.617188 -94.070312 51.925781 -92.824219 40.011719 -92.648438 L 40.011719 -149.371094 C 62.417969 -149.195312 78.421875 -147.238281 86.957031 -134.792969 L 96.203125 -134.792969 L 91.402344 -162.175781 L 6.222656 -162.175781 L 6.222656 0 L 94.957031 0 L 99.761719 -27.5625 Z M 90.511719 -27.5625 "/></g></g></g><g fill="#ec00ff" fill-opacity="0.302"><g transform="translate(691.743065, 474.178623)"><g><path d="M 67.929688 -162.175781 L 6.222656 -162.175781 L 6.222656 0 L 61.351562 0 C 96.203125 0 125.898438 -24.007812 125.898438 -84.109375 C 125.898438 -137.101562 106.160156 -162.175781 67.929688 -162.175781 Z M 40.011719 -149.90625 L 50.324219 -149.90625 C 78.597656 -149.90625 92.113281 -133.546875 92.113281 -84.109375 C 92.113281 -21.695312 69.53125 -12.625 40.011719 -12.449219 Z M 40.011719 -149.90625 "/></g></g></g><g fill="#ec00ff" fill-opacity="0.302"><g transform="translate(822.618789, 474.178623)"><g><path d="M 90.511719 -27.5625 C 81.621094 -14.402344 64.195312 -12.980469 40.011719 -12.980469 L 40.011719 -79.84375 C 51.746094 -79.488281 65.617188 -77.710938 77 -72.730469 L 82.15625 -72.730469 L 82.332031 -98.691406 L 77 -98.691406 C 65.617188 -94.070312 51.925781 -92.824219 40.011719 -92.648438 L 40.011719 -149.371094 C 62.417969 -149.195312 78.421875 -147.238281 86.957031 -134.792969 L 96.203125 -134.792969 L 91.402344 -162.175781 L 6.222656 -162.175781 L 6.222656 0 L 94.957031 0 L 99.761719 -27.5625 Z M 90.511719 -27.5625 "/></g></g></g><g fill="#ec00ff" fill-opacity="0.302"><g transform="translate(927.710608, 474.178623)"><g><path d="M 62.0625 2.3125 C 92.46875 2.3125 120.566406 -14.757812 119.5 -45.523438 C 118.074219 -86.601562 41.433594 -111.675781 41.433594 -135.148438 C 41.433594 -146.351562 49.613281 -151.507812 60.28125 -151.507812 C 76.640625 -151.507812 98.335938 -139.238281 104.207031 -117.898438 L 113.453125 -117.898438 L 117.007812 -145.460938 C 104.382812 -157.910156 82.332031 -164.84375 61.527344 -164.84375 C 34.140625 -164.84375 8.890625 -152.21875 8.890625 -124.832031 C 8.890625 -86.957031 89.445312 -63.839844 89.445312 -32.363281 C 89.445312 -20.449219 81.800781 -12.269531 67.75 -12.269531 C 49.96875 -12.269531 27.5625 -27.5625 19.207031 -52.8125 L 9.78125 -52.8125 L 6.222656 -23.472656 C 18.136719 -6.222656 40.898438 2.3125 62.0625 2.3125 Z M 62.0625 2.3125 "/></g></g></g><g fill="#ec00ff" fill-opacity="0.502"><g transform="translate(47.334354, 468.827693)"><g><path d="M 87.667969 -34.320312 L 46.058594 -162.175781 L 13.335938 -162.175781 L 17.425781 -149.550781 L 17.425781 -56.902344 C 17.425781 -33.609375 15.648438 -17.960938 10.3125 -5.335938 L 10.3125 0 L 36.277344 0.179688 L 36.277344 -5.335938 C 30.941406 -17.960938 30.230469 -33.609375 30.230469 -56.902344 L 30.230469 -110.074219 L 65.972656 0 L 90.867188 0 L 124.121094 -116.296875 L 124.121094 0 L 157.730469 0 L 157.730469 -162.175781 L 124.300781 -162.175781 Z M 87.667969 -34.320312 "/></g></g></g><g fill="#ec00ff" fill-opacity="0.502"><g transform="translate(214.12975, 468.827693)"><g><path d="M 90.511719 -27.5625 C 81.621094 -14.402344 64.195312 -12.980469 40.011719 -12.980469 L 40.011719 -79.84375 C 51.746094 -79.488281 65.617188 -77.710938 77 -72.730469 L 82.15625 -72.730469 L 82.332031 -98.691406 L 77 -98.691406 C 65.617188 -94.070312 51.925781 -92.824219 40.011719 -92.648438 L 40.011719 -149.371094 C 62.417969 -149.195312 78.421875 -147.238281 86.957031 -134.792969 L 96.203125 -134.792969 L 91.402344 -162.175781 L 6.222656 -162.175781 L 6.222656 0 L 94.957031 0 L 99.761719 -27.5625 Z M 90.511719 -27.5625 "/></g></g></g><g fill="#ec00ff" fill-opacity="0.502"><g transform="translate(319.221511, 468.827693)"><g><path d="M 83.933594 -74.863281 C 101.183594 -81.265625 111.851562 -95.3125 111.851562 -116.652344 C 111.851562 -140.304688 98.515625 -162.175781 72.550781 -162.175781 L 6.222656 -162.175781 L 6.222656 0 L 40.011719 0 L 40.011719 -68.816406 L 49.613281 -68.816406 C 86.957031 -68.816406 66.683594 -23.828125 85.179688 0 L 118.253906 0 C 101.539062 -23.117188 114.519531 -66.683594 83.933594 -74.863281 Z M 40.011719 -149.371094 L 49.96875 -149.371094 C 70.417969 -149.371094 78.066406 -133.546875 78.066406 -116.652344 C 78.066406 -99.046875 70.417969 -81.621094 49.96875 -81.621094 L 40.011719 -81.621094 Z M 40.011719 -149.371094 "/></g></g></g><g fill="#ec00ff" fill-opacity="0.502"><g transform="translate(442.450932, 468.827693)"><g><path d="M 74.863281 1.957031 C 96.558594 1.957031 118.785156 -10.3125 132.125 -32.71875 L 124.300781 -56.191406 L 115.054688 -56.191406 C 109.183594 -26.140625 94.070312 -11.738281 80.199219 -11.738281 C 59.925781 -11.738281 40.011719 -36.808594 40.011719 -83.933594 C 40.011719 -130.347656 59.570312 -153.285156 77.886719 -153.285156 C 93.359375 -153.285156 107.941406 -137.28125 109.71875 -105.804688 L 119.144531 -105.804688 L 130.878906 -129.277344 C 125.722656 -152.21875 105.449219 -164.132812 78.242188 -164.132812 C 34.140625 -164.132812 6.222656 -137.101562 6.222656 -83.933594 C 6.222656 -26.671875 40.542969 1.957031 74.863281 1.957031 Z M 74.863281 1.957031 "/></g></g></g><g fill="#ec00ff" fill-opacity="0.502"><g transform="translate(579.550365, 468.827693)"><g><path d="M 90.511719 -27.5625 C 81.621094 -14.402344 64.195312 -12.980469 40.011719 -12.980469 L 40.011719 -79.84375 C 51.746094 -79.488281 65.617188 -77.710938 77 -72.730469 L 82.15625 -72.730469 L 82.332031 -98.691406 L 77 -98.691406 C 65.617188 -94.070312 51.925781 -92.824219 40.011719 -92.648438 L 40.011719 -149.371094 C 62.417969 -149.195312 78.421875 -147.238281 86.957031 -134.792969 L 96.203125 -134.792969 L 91.402344 -162.175781 L 6.222656 -162.175781 L 6.222656 0 L 94.957031 0 L 99.761719 -27.5625 Z M 90.511719 -27.5625 "/></g></g></g><g fill="#ec00ff" fill-opacity="0.502"><g transform="translate(684.642138, 468.827693)"><g><path d="M 67.929688 -162.175781 L 6.222656 -162.175781 L 6.222656 0 L 61.351562 0 C 96.203125 0 125.898438 -24.007812 125.898438 -84.109375 C 125.898438 -137.101562 106.160156 -162.175781 67.929688 -162.175781 Z M 40.011719 -149.90625 L 50.324219 -149.90625 C 78.597656 -149.90625 92.113281 -133.546875 92.113281 -84.109375 C 92.113281 -21.695312 69.53125 -12.625 40.011719 -12.449219 Z M 40.011719 -149.90625 "/></g></g></g><g fill="#ec00ff" fill-opacity="0.502"><g transform="translate(815.517862, 468.827693)"><g><path d="M 90.511719 -27.5625 C 81.621094 -14.402344 64.195312 -12.980469 40.011719 -12.980469 L 40.011719 -79.84375 C 51.746094 -79.488281 65.617188 -77.710938 77 -72.730469 L 82.15625 -72.730469 L 82.332031 -98.691406 L 77 -98.691406 C 65.617188 -94.070312 51.925781 -92.824219 40.011719 -92.648438 L 40.011719 -149.371094 C 62.417969 -149.195312 78.421875 -147.238281 86.957031 -134.792969 L 96.203125 -134.792969 L 91.402344 -162.175781 L 6.222656 -162.175781 L 6.222656 0 L 94.957031 0 L 99.761719 -27.5625 Z M 90.511719 -27.5625 "/></g></g></g><g fill="#ec00ff" fill-opacity="0.502"><g transform="translate(920.60968, 468.827693)"><g><path d="M 62.0625 2.3125 C 92.46875 2.3125 120.566406 -14.757812 119.5 -45.523438 C 118.074219 -86.601562 41.433594 -111.675781 41.433594 -135.148438 C 41.433594 -146.351562 49.613281 -151.507812 60.28125 -151.507812 C 76.640625 -151.507812 98.335938 -139.238281 104.207031 -117.898438 L 113.453125 -117.898438 L 117.007812 -145.460938 C 104.382812 -157.910156 82.332031 -164.84375 61.527344 -164.84375 C 34.140625 -164.84375 8.890625 -152.21875 8.890625 -124.832031 C 8.890625 -86.957031 89.445312 -63.839844 89.445312 -32.363281 C 89.445312 -20.449219 81.800781 -12.269531 67.75 -12.269531 C 49.96875 -12.269531 27.5625 -27.5625 19.207031 -52.8125 L 9.78125 -52.8125 L 6.222656 -23.472656 C 18.136719 -6.222656 40.898438 2.3125 62.0625 2.3125 Z M 62.0625 2.3125 "/></g></g></g><g fill="#f2eec0" fill-opacity="1"><g transform="translate(40.233425, 463.476767)"><g><path d="M 87.667969 -34.320312 L 46.058594 -162.175781 L 13.335938 -162.175781 L 17.425781 -149.550781 L 17.425781 -56.902344 C 17.425781 -33.609375 15.648438 -17.960938 10.3125 -5.335938 L 10.3125 0 L 36.277344 0.179688 L 36.277344 -5.335938 C 30.941406 -17.960938 30.230469 -33.609375 30.230469 -56.902344 L 30.230469 -110.074219 L 65.972656 0 L 90.867188 0 L 124.121094 -116.296875 L 124.121094 0 L 157.730469 0 L 157.730469 -162.175781 L 124.300781 -162.175781 Z M 87.667969 -34.320312 "/></g></g></g><g fill="#f2eec0" fill-opacity="1"><g transform="translate(207.028821, 463.476767)"><g><path d="M 90.511719 -27.5625 C 81.621094 -14.402344 64.195312 -12.980469 40.011719 -12.980469 L 40.011719 -79.84375 C 51.746094 -79.488281 65.617188 -77.710938 77 -72.730469 L 82.15625 -72.730469 L 82.332031 -98.691406 L 77 -98.691406 C 65.617188 -94.070312 51.925781 -92.824219 40.011719 -92.648438 L 40.011719 -149.371094 C 62.417969 -149.195312 78.421875 -147.238281 86.957031 -134.792969 L 96.203125 -134.792969 L 91.402344 -162.175781 L 6.222656 -162.175781 L 6.222656 0 L 94.957031 0 L 99.761719 -27.5625 Z M 90.511719 -27.5625 "/></g></g></g><g fill="#f2eec0" fill-opacity="1"><g transform="translate(312.120582, 463.476767)"><g><path d="M 83.933594 -74.863281 C 101.183594 -81.265625 111.851562 -95.3125 111.851562 -116.652344 C 111.851562 -140.304688 98.515625 -162.175781 72.550781 -162.175781 L 6.222656 -162.175781 L 6.222656 0 L 40.011719 0 L 40.011719 -68.816406 L 49.613281 -68.816406 C 86.957031 -68.816406 66.683594 -23.828125 85.179688 0 L 118.253906 0 C 101.539062 -23.117188 114.519531 -66.683594 83.933594 -74.863281 Z M 40.011719 -149.371094 L 49.96875 -149.371094 C 70.417969 -149.371094 78.066406 -133.546875 78.066406 -116.652344 C 78.066406 -99.046875 70.417969 -81.621094 49.96875 -81.621094 L 40.011719 -81.621094 Z M 40.011719 -149.371094 "/></g></g></g><g fill="#f2eec0" fill-opacity="1"><g transform="translate(435.350003, 463.476767)"><g><path d="M 74.863281 1.957031 C 96.558594 1.957031 118.785156 -10.3125 132.125 -32.71875 L 124.300781 -56.191406 L 115.054688 -56.191406 C 109.183594 -26.140625 94.070312 -11.738281 80.199219 -11.738281 C 59.925781 -11.738281 40.011719 -36.808594 40.011719 -83.933594 C 40.011719 -130.347656 59.570312 -153.285156 77.886719 -153.285156 C 93.359375 -153.285156 107.941406 -137.28125 109.71875 -105.804688 L 119.144531 -105.804688 L 130.878906 -129.277344 C 125.722656 -152.21875 105.449219 -164.132812 78.242188 -164.132812 C 34.140625 -164.132812 6.222656 -137.101562 6.222656 -83.933594 C 6.222656 -26.671875 40.542969 1.957031 74.863281 1.957031 Z M 74.863281 1.957031 "/></g></g></g><g fill="#f2eec0" fill-opacity="1"><g transform="translate(572.449437, 463.476767)"><g><path d="M 90.511719 -27.5625 C 81.621094 -14.402344 64.195312 -12.980469 40.011719 -12.980469 L 40.011719 -79.84375 C 51.746094 -79.488281 65.617188 -77.710938 77 -72.730469 L 82.15625 -72.730469 L 82.332031 -98.691406 L 77 -98.691406 C 65.617188 -94.070312 51.925781 -92.824219 40.011719 -92.648438 L 40.011719 -149.371094 C 62.417969 -149.195312 78.421875 -147.238281 86.957031 -134.792969 L 96.203125 -134.792969 L 91.402344 -162.175781 L 6.222656 -162.175781 L 6.222656 0 L 94.957031 0 L 99.761719 -27.5625 Z M 90.511719 -27.5625 "/></g></g></g><g fill="#f2eec0" fill-opacity="1"><g transform="translate(677.541209, 463.476767)"><g><path d="M 67.929688 -162.175781 L 6.222656 -162.175781 L 6.222656 0 L 61.351562 0 C 96.203125 0 125.898438 -24.007812 125.898438 -84.109375 C 125.898438 -137.101562 106.160156 -162.175781 67.929688 -162.175781 Z M 40.011719 -149.90625 L 50.324219 -149.90625 C 78.597656 -149.90625 92.113281 -133.546875 92.113281 -84.109375 C 92.113281 -21.695312 69.53125 -12.625 40.011719 -12.449219 Z M 40.011719 -149.90625 "/></g></g></g><g fill="#f2eec0" fill-opacity="1"><g transform="translate(808.416933, 463.476767)"><g><path d="M 90.511719 -27.5625 C 81.621094 -14.402344 64.195312 -12.980469 40.011719 -12.980469 L 40.011719 -79.84375 C 51.746094 -79.488281 65.617188 -77.710938 77 -72.730469 L 82.15625 -72.730469 L 82.332031 -98.691406 L 77 -98.691406 C 65.617188 -94.070312 51.925781 -92.824219 40.011719 -92.648438 L 40.011719 -149.371094 C 62.417969 -149.195312 78.421875 -147.238281 86.957031 -134.792969 L 96.203125 -134.792969 L 91.402344 -162.175781 L 6.222656 -162.175781 L 6.222656 0 L 94.957031 0 L 99.761719 -27.5625 Z M 90.511719 -27.5625 "/></g></g></g><g fill="#f2eec0" fill-opacity="1"><g transform="translate(913.508752, 463.476767)"><g><path d="M 62.0625 2.3125 C 92.46875 2.3125 120.566406 -14.757812 119.5 -45.523438 C 118.074219 -86.601562 41.433594 -111.675781 41.433594 -135.148438 C 41.433594 -146.351562 49.613281 -151.507812 60.28125 -151.507812 C 76.640625 -151.507812 98.335938 -139.238281 104.207031 -117.898438 L 113.453125 -117.898438 L 117.007812 -145.460938 C 104.382812 -157.910156 82.332031 -164.84375 61.527344 -164.84375 C 34.140625 -164.84375 8.890625 -152.21875 8.890625 -124.832031 C 8.890625 -86.957031 89.445312 -63.839844 89.445312 -32.363281 C 89.445312 -20.449219 81.800781 -12.269531 67.75 -12.269531 C 49.96875 -12.269531 27.5625 -27.5625 19.207031 -52.8125 L 9.78125 -52.8125 L 6.222656 -23.472656 C 18.136719 -6.222656 40.898438 2.3125 62.0625 2.3125 Z M 62.0625 2.3125 "/></g></g></g><g fill="#ec00ff" fill-opacity="0.302"><g transform="translate(58.794656, 702.928603)"><g><path d="M 75.929688 0 C 104.738281 0 117.542969 -24.183594 117.542969 -44.101562 C 117.542969 -64.90625 108.472656 -80.375 89.089844 -82.867188 L 89.089844 -84.109375 C 101.003906 -88.023438 109.183594 -105.449219 109.183594 -122.699219 C 109.183594 -142.4375 98.691406 -162.175781 71.839844 -162.175781 L 6.222656 -162.175781 L 6.222656 0 Z M 40.011719 -149.371094 L 53.523438 -149.371094 C 72.019531 -149.371094 78.066406 -139.59375 78.066406 -119.855469 C 78.066406 -101.714844 73.441406 -89.089844 57.257812 -89.089844 L 40.011719 -89.089844 Z M 40.011719 -76.285156 L 57.257812 -76.285156 C 75.574219 -76.285156 83.753906 -64.90625 83.753906 -44.101562 C 83.753906 -24.007812 75.398438 -12.980469 54.238281 -12.980469 L 40.011719 -12.980469 Z M 40.011719 -76.285156 "/></g></g></g><g fill="#ec00ff" fill-opacity="0.302"><g transform="translate(179.001143, 702.928603)"><g><path d="M 90.511719 -27.5625 C 81.621094 -14.402344 64.195312 -12.980469 40.011719 -12.980469 L 40.011719 -79.84375 C 51.746094 -79.488281 65.617188 -77.710938 77 -72.730469 L 82.15625 -72.730469 L 82.332031 -98.691406 L 77 -98.691406 C 65.617188 -94.070312 51.925781 -92.824219 40.011719 -92.648438 L 40.011719 -149.371094 C 62.417969 -149.195312 78.421875 -147.238281 86.957031 -134.792969 L 96.203125 -134.792969 L 91.402344 -162.175781 L 6.222656 -162.175781 L 6.222656 0 L 94.957031 0 L 99.761719 -27.5625 Z M 90.511719 -27.5625 "/></g></g></g><g fill="#ec00ff" fill-opacity="0.302"><g transform="translate(284.092916, 702.928603)"><g><path d="M 36.277344 -5.335938 C 30.941406 -17.960938 30.230469 -33.609375 30.230469 -56.902344 L 30.230469 -126.078125 L 89.089844 0 L 122.878906 0 L 122.878906 -105.09375 C 122.878906 -128.390625 122.699219 -144.214844 127.679688 -156.839844 L 127.679688 -162.175781 L 102.960938 -162 L 102.960938 -156.839844 C 108.472656 -144.214844 110.074219 -128.390625 110.074219 -105.09375 L 110.074219 -27.917969 L 47.835938 -162.175781 L 17.425781 -162.175781 L 17.425781 -56.902344 C 17.425781 -33.609375 15.648438 -17.960938 10.3125 -5.335938 L 10.3125 0 L 36.277344 0.179688 Z M 36.277344 -5.335938 "/></g></g></g><g fill="#ec00ff" fill-opacity="0.302"><g transform="translate(417.991574, 702.928603)"><g><path d="M 120.921875 0 L 125.722656 -27.5625 L 116.476562 -27.5625 C 106.871094 -13.515625 88.203125 -12.804688 61.171875 -12.980469 L 42.855469 -12.980469 L 125.898438 -162.175781 L 9.070312 -162.175781 L 4.269531 -134.792969 L 13.691406 -134.792969 C 23.652344 -149.371094 43.746094 -149.550781 72.195312 -149.371094 L 84.109375 -149.371094 L 0.890625 0 Z M 120.921875 0 "/></g></g></g><g fill="#ec00ff" fill-opacity="0.302"><g transform="translate(541.220995, 702.928603)"><g/></g></g><g fill="#ec00ff" fill-opacity="0.302"><g transform="translate(585.67607, 702.928603)"><g><path d="M 54.59375 0 L 54.59375 -162.175781 L 37.34375 -162.175781 L 7.644531 -138.703125 L 11.914062 -128.390625 L 20.804688 -136.035156 L 20.804688 0 Z M 54.59375 0 "/></g></g></g><g fill="#ec00ff" fill-opacity="0.302"><g transform="translate(647.735315, 702.928603)"><g><path d="M 70.773438 -165.023438 C 43.035156 -165.023438 7.644531 -144.039062 7.644531 -100.292969 C 7.644531 -63.484375 36.453125 -43.035156 65.082031 -43.035156 C 79.488281 -43.035156 93.714844 -48.367188 104.027344 -59.570312 C 100.648438 -28.453125 86.066406 -11.558594 67.929688 -11.558594 C 55.304688 -11.558594 40.898438 -20.09375 27.386719 -38.230469 L 22.050781 -38.230469 L 18.492188 -6.578125 C 35.210938 -0.179688 50.679688 2.84375 64.550781 2.84375 C 110.429688 2.84375 138.703125 -29.695312 138.703125 -80.734375 C 138.703125 -130.703125 116.121094 -165.023438 70.773438 -165.023438 Z M 70.597656 -156.128906 C 93.359375 -156.128906 106.160156 -118.429688 104.917969 -78.953125 C 97.980469 -65.441406 86.246094 -58.503906 74.863281 -58.503906 C 58.328125 -58.503906 42.679688 -72.910156 42.679688 -102.605469 C 42.679688 -143.683594 59.75 -156.128906 70.597656 -156.128906 Z M 70.597656 -156.128906 "/></g></g></g><g fill="#ec00ff" fill-opacity="0.302"><g transform="translate(793.903545, 702.928603)"><g><path d="M 60.28125 2.3125 C 91.222656 2.3125 119.675781 -20.449219 119.675781 -58.859375 C 119.675781 -94.78125 98.335938 -120.921875 58.148438 -120.921875 C 50.679688 -120.921875 42.679688 -120.03125 34.140625 -117.898438 L 29.875 -116.296875 L 34.855469 -137.28125 L 81.089844 -137.28125 C 92.113281 -137.28125 100.292969 -135.679688 107.050781 -124.832031 L 112.03125 -124.832031 L 112.03125 -162.53125 L 29.875 -162.53125 L 16.714844 -103.136719 L 22.226562 -98.335938 C 30.585938 -102.605469 38.589844 -104.5625 45.699219 -104.5625 C 70.417969 -104.5625 85.890625 -81.621094 85.890625 -57.792969 C 85.890625 -27.03125 73.265625 -10.492188 58.683594 -10.492188 C 45.167969 -10.492188 29.875 -25.074219 20.804688 -55.480469 L 15.472656 -55.480469 L 7.644531 -24.007812 C 22.40625 -5.867188 41.789062 2.3125 60.28125 2.3125 Z M 60.28125 2.3125 "/></g></g></g><g fill="#ec00ff" fill-opacity="0.302"><g transform="translate(921.045012, 702.928603)"><g><path d="M 117.1875 0 L 121.097656 -35.210938 L 115.765625 -35.210938 C 104.738281 -17.25 75.398438 -15.113281 60.28125 -15.113281 L 24.007812 -15.113281 L 24.007812 -19.027344 C 24.007812 -45.878906 120.566406 -77.53125 120.566406 -126.613281 C 120.566406 -153.820312 93.003906 -165.023438 68.460938 -165.023438 C 50.148438 -165.023438 29.164062 -158.796875 11.558594 -148.128906 L 11.558594 -114.875 L 16.894531 -114.875 C 26.140625 -134.613281 57.257812 -150.085938 75.21875 -150.085938 C 84.644531 -150.085938 91.578125 -146.171875 91.578125 -136.925781 C 91.578125 -103.671875 7.644531 -64.195312 7.644531 -23.296875 L 7.644531 0.179688 Z M 117.1875 0 "/></g></g></g><g fill="#ec00ff" fill-opacity="0.502"><g transform="translate(51.693728, 697.577674)"><g><path d="M 75.929688 0 C 104.738281 0 117.542969 -24.183594 117.542969 -44.101562 C 117.542969 -64.90625 108.472656 -80.375 89.089844 -82.867188 L 89.089844 -84.109375 C 101.003906 -88.023438 109.183594 -105.449219 109.183594 -122.699219 C 109.183594 -142.4375 98.691406 -162.175781 71.839844 -162.175781 L 6.222656 -162.175781 L 6.222656 0 Z M 40.011719 -149.371094 L 53.523438 -149.371094 C 72.019531 -149.371094 78.066406 -139.59375 78.066406 -119.855469 C 78.066406 -101.714844 73.441406 -89.089844 57.257812 -89.089844 L 40.011719 -89.089844 Z M 40.011719 -76.285156 L 57.257812 -76.285156 C 75.574219 -76.285156 83.753906 -64.90625 83.753906 -44.101562 C 83.753906 -24.007812 75.398438 -12.980469 54.238281 -12.980469 L 40.011719 -12.980469 Z M 40.011719 -76.285156 "/></g></g></g><g fill="#ec00ff" fill-opacity="0.502"><g transform="translate(171.900216, 697.577674)"><g><path d="M 90.511719 -27.5625 C 81.621094 -14.402344 64.195312 -12.980469 40.011719 -12.980469 L 40.011719 -79.84375 C 51.746094 -79.488281 65.617188 -77.710938 77 -72.730469 L 82.15625 -72.730469 L 82.332031 -98.691406 L 77 -98.691406 C 65.617188 -94.070312 51.925781 -92.824219 40.011719 -92.648438 L 40.011719 -149.371094 C 62.417969 -149.195312 78.421875 -147.238281 86.957031 -134.792969 L 96.203125 -134.792969 L 91.402344 -162.175781 L 6.222656 -162.175781 L 6.222656 0 L 94.957031 0 L 99.761719 -27.5625 Z M 90.511719 -27.5625 "/></g></g></g><g fill="#ec00ff" fill-opacity="0.502"><g transform="translate(276.991988, 697.577674)"><g><path d="M 36.277344 -5.335938 C 30.941406 -17.960938 30.230469 -33.609375 30.230469 -56.902344 L 30.230469 -126.078125 L 89.089844 0 L 122.878906 0 L 122.878906 -105.09375 C 122.878906 -128.390625 122.699219 -144.214844 127.679688 -156.839844 L 127.679688 -162.175781 L 102.960938 -162 L 102.960938 -156.839844 C 108.472656 -144.214844 110.074219 -128.390625 110.074219 -105.09375 L 110.074219 -27.917969 L 47.835938 -162.175781 L 17.425781 -162.175781 L 17.425781 -56.902344 C 17.425781 -33.609375 15.648438 -17.960938 10.3125 -5.335938 L 10.3125 0 L 36.277344 0.179688 Z M 36.277344 -5.335938 "/></g></g></g><g fill="#ec00ff" fill-opacity="0.502"><g transform="translate(410.890647, 697.577674)"><g><path d="M 120.921875 0 L 125.722656 -27.5625 L 116.476562 -27.5625 C 106.871094 -13.515625 88.203125 -12.804688 61.171875 -12.980469 L 42.855469 -12.980469 L 125.898438 -162.175781 L 9.070312 -162.175781 L 4.269531 -134.792969 L 13.691406 -134.792969 C 23.652344 -149.371094 43.746094 -149.550781 72.195312 -149.371094 L 84.109375 -149.371094 L 0.890625 0 Z M 120.921875 0 "/></g></g></g><g fill="#ec00ff" fill-opacity="0.502"><g transform="translate(534.120068, 697.577674)"><g/></g></g><g fill="#ec00ff" fill-opacity="0.502"><g transform="translate(578.575142, 697.577674)"><g><path d="M 54.59375 0 L 54.59375 -162.175781 L 37.34375 -162.175781 L 7.644531 -138.703125 L 11.914062 -128.390625 L 20.804688 -136.035156 L 20.804688 0 Z M 54.59375 0 "/></g></g></g><g fill="#ec00ff" fill-opacity="0.502"><g transform="translate(640.634387, 697.577674)"><g><path d="M 70.773438 -165.023438 C 43.035156 -165.023438 7.644531 -144.039062 7.644531 -100.292969 C 7.644531 -63.484375 36.453125 -43.035156 65.082031 -43.035156 C 79.488281 -43.035156 93.714844 -48.367188 104.027344 -59.570312 C 100.648438 -28.453125 86.066406 -11.558594 67.929688 -11.558594 C 55.304688 -11.558594 40.898438 -20.09375 27.386719 -38.230469 L 22.050781 -38.230469 L 18.492188 -6.578125 C 35.210938 -0.179688 50.679688 2.84375 64.550781 2.84375 C 110.429688 2.84375 138.703125 -29.695312 138.703125 -80.734375 C 138.703125 -130.703125 116.121094 -165.023438 70.773438 -165.023438 Z M 70.597656 -156.128906 C 93.359375 -156.128906 106.160156 -118.429688 104.917969 -78.953125 C 97.980469 -65.441406 86.246094 -58.503906 74.863281 -58.503906 C 58.328125 -58.503906 42.679688 -72.910156 42.679688 -102.605469 C 42.679688 -143.683594 59.75 -156.128906 70.597656 -156.128906 Z M 70.597656 -156.128906 "/></g></g></g><g fill="#ec00ff" fill-opacity="0.502"><g transform="translate(786.802618, 697.577674)"><g><path d="M 60.28125 2.3125 C 91.222656 2.3125 119.675781 -20.449219 119.675781 -58.859375 C 119.675781 -94.78125 98.335938 -120.921875 58.148438 -120.921875 C 50.679688 -120.921875 42.679688 -120.03125 34.140625 -117.898438 L 29.875 -116.296875 L 34.855469 -137.28125 L 81.089844 -137.28125 C 92.113281 -137.28125 100.292969 -135.679688 107.050781 -124.832031 L 112.03125 -124.832031 L 112.03125 -162.53125 L 29.875 -162.53125 L 16.714844 -103.136719 L 22.226562 -98.335938 C 30.585938 -102.605469 38.589844 -104.5625 45.699219 -104.5625 C 70.417969 -104.5625 85.890625 -81.621094 85.890625 -57.792969 C 85.890625 -27.03125 73.265625 -10.492188 58.683594 -10.492188 C 45.167969 -10.492188 29.875 -25.074219 20.804688 -55.480469 L 15.472656 -55.480469 L 7.644531 -24.007812 C 22.40625 -5.867188 41.789062 2.3125 60.28125 2.3125 Z M 60.28125 2.3125 "/></g></g></g><g fill="#ec00ff" fill-opacity="0.502"><g transform="translate(913.944085, 697.577674)"><g><path d="M 117.1875 0 L 121.097656 -35.210938 L 115.765625 -35.210938 C 104.738281 -17.25 75.398438 -15.113281 60.28125 -15.113281 L 24.007812 -15.113281 L 24.007812 -19.027344 C 24.007812 -45.878906 120.566406 -77.53125 120.566406 -126.613281 C 120.566406 -153.820312 93.003906 -165.023438 68.460938 -165.023438 C 50.148438 -165.023438 29.164062 -158.796875 11.558594 -148.128906 L 11.558594 -114.875 L 16.894531 -114.875 C 26.140625 -134.613281 57.257812 -150.085938 75.21875 -150.085938 C 84.644531 -150.085938 91.578125 -146.171875 91.578125 -136.925781 C 91.578125 -103.671875 7.644531 -64.195312 7.644531 -23.296875 L 7.644531 0.179688 Z M 117.1875 0 "/></g></g></g><g fill="#f2eec0" fill-opacity="1"><g transform="translate(44.5928, 692.226747)"><g><path d="M 75.929688 0 C 104.738281 0 117.542969 -24.183594 117.542969 -44.101562 C 117.542969 -64.90625 108.472656 -80.375 89.089844 -82.867188 L 89.089844 -84.109375 C 101.003906 -88.023438 109.183594 -105.449219 109.183594 -122.699219 C 109.183594 -142.4375 98.691406 -162.175781 71.839844 -162.175781 L 6.222656 -162.175781 L 6.222656 0 Z M 40.011719 -149.371094 L 53.523438 -149.371094 C 72.019531 -149.371094 78.066406 -139.59375 78.066406 -119.855469 C 78.066406 -101.714844 73.441406 -89.089844 57.257812 -89.089844 L 40.011719 -89.089844 Z M 40.011719 -76.285156 L 57.257812 -76.285156 C 75.574219 -76.285156 83.753906 -64.90625 83.753906 -44.101562 C 83.753906 -24.007812 75.398438 -12.980469 54.238281 -12.980469 L 40.011719 -12.980469 Z M 40.011719 -76.285156 "/></g></g></g><g fill="#f2eec0" fill-opacity="1"><g transform="translate(164.799287, 692.226747)"><g><path d="M 90.511719 -27.5625 C 81.621094 -14.402344 64.195312 -12.980469 40.011719 -12.980469 L 40.011719 -79.84375 C 51.746094 -79.488281 65.617188 -77.710938 77 -72.730469 L 82.15625 -72.730469 L 82.332031 -98.691406 L 77 -98.691406 C 65.617188 -94.070312 51.925781 -92.824219 40.011719 -92.648438 L 40.011719 -149.371094 C 62.417969 -149.195312 78.421875 -147.238281 86.957031 -134.792969 L 96.203125 -134.792969 L 91.402344 -162.175781 L 6.222656 -162.175781 L 6.222656 0 L 94.957031 0 L 99.761719 -27.5625 Z M 90.511719 -27.5625 "/></g></g></g><g fill="#f2eec0" fill-opacity="1"><g transform="translate(269.89106, 692.226747)"><g><path d="M 36.277344 -5.335938 C 30.941406 -17.960938 30.230469 -33.609375 30.230469 -56.902344 L 30.230469 -126.078125 L 89.089844 0 L 122.878906 0 L 122.878906 -105.09375 C 122.878906 -128.390625 122.699219 -144.214844 127.679688 -156.839844 L 127.679688 -162.175781 L 102.960938 -162 L 102.960938 -156.839844 C 108.472656 -144.214844 110.074219 -128.390625 110.074219 -105.09375 L 110.074219 -27.917969 L 47.835938 -162.175781 L 17.425781 -162.175781 L 17.425781 -56.902344 C 17.425781 -33.609375 15.648438 -17.960938 10.3125 -5.335938 L 10.3125 0 L 36.277344 0.179688 Z M 36.277344 -5.335938 "/></g></g></g><g fill="#f2eec0" fill-opacity="1"><g transform="translate(403.789718, 692.226747)"><g><path d="M 120.921875 0 L 125.722656 -27.5625 L 116.476562 -27.5625 C 106.871094 -13.515625 88.203125 -12.804688 61.171875 -12.980469 L 42.855469 -12.980469 L 125.898438 -162.175781 L 9.070312 -162.175781 L 4.269531 -134.792969 L 13.691406 -134.792969 C 23.652344 -149.371094 43.746094 -149.550781 72.195312 -149.371094 L 84.109375 -149.371094 L 0.890625 0 Z M 120.921875 0 "/></g></g></g><g fill="#f2eec0" fill-opacity="1"><g transform="translate(527.019139, 692.226747)"><g/></g></g><g fill="#f2eec0" fill-opacity="1"><g transform="translate(571.474214, 692.226747)"><g><path d="M 54.59375 0 L 54.59375 -162.175781 L 37.34375 -162.175781 L 7.644531 -138.703125 L 11.914062 -128.390625 L 20.804688 -136.035156 L 20.804688 0 Z M 54.59375 0 "/></g></g></g><g fill="#f2eec0" fill-opacity="1"><g transform="translate(633.533459, 692.226747)"><g><path d="M 70.773438 -165.023438 C 43.035156 -165.023438 7.644531 -144.039062 7.644531 -100.292969 C 7.644531 -63.484375 36.453125 -43.035156 65.082031 -43.035156 C 79.488281 -43.035156 93.714844 -48.367188 104.027344 -59.570312 C 100.648438 -28.453125 86.066406 -11.558594 67.929688 -11.558594 C 55.304688 -11.558594 40.898438 -20.09375 27.386719 -38.230469 L 22.050781 -38.230469 L 18.492188 -6.578125 C 35.210938 -0.179688 50.679688 2.84375 64.550781 2.84375 C 110.429688 2.84375 138.703125 -29.695312 138.703125 -80.734375 C 138.703125 -130.703125 116.121094 -165.023438 70.773438 -165.023438 Z M 70.597656 -156.128906 C 93.359375 -156.128906 106.160156 -118.429688 104.917969 -78.953125 C 97.980469 -65.441406 86.246094 -58.503906 74.863281 -58.503906 C 58.328125 -58.503906 42.679688 -72.910156 42.679688 -102.605469 C 42.679688 -143.683594 59.75 -156.128906 70.597656 -156.128906 Z M 70.597656 -156.128906 "/></g></g></g><g fill="#f2eec0" fill-opacity="1"><g transform="translate(779.701689, 692.226747)"><g><path d="M 60.28125 2.3125 C 91.222656 2.3125 119.675781 -20.449219 119.675781 -58.859375 C 119.675781 -94.78125 98.335938 -120.921875 58.148438 -120.921875 C 50.679688 -120.921875 42.679688 -120.03125 34.140625 -117.898438 L 29.875 -116.296875 L 34.855469 -137.28125 L 81.089844 -137.28125 C 92.113281 -137.28125 100.292969 -135.679688 107.050781 -124.832031 L 112.03125 -124.832031 L 112.03125 -162.53125 L 29.875 -162.53125 L 16.714844 -103.136719 L 22.226562 -98.335938 C 30.585938 -102.605469 38.589844 -104.5625 45.699219 -104.5625 C 70.417969 -104.5625 85.890625 -81.621094 85.890625 -57.792969 C 85.890625 -27.03125 73.265625 -10.492188 58.683594 -10.492188 C 45.167969 -10.492188 29.875 -25.074219 20.804688 -55.480469 L 15.472656 -55.480469 L 7.644531 -24.007812 C 22.40625 -5.867188 41.789062 2.3125 60.28125 2.3125 Z M 60.28125 2.3125 "/></g></g></g><g fill="#f2eec0" fill-opacity="1"><g transform="translate(906.843156, 692.226747)"><g><path d="M 117.1875 0 L 121.097656 -35.210938 L 115.765625 -35.210938 C 104.738281 -17.25 75.398438 -15.113281 60.28125 -15.113281 L 24.007812 -15.113281 L 24.007812 -19.027344 C 24.007812 -45.878906 120.566406 -77.53125 120.566406 -126.613281 C 120.566406 -153.820312 93.003906 -165.023438 68.460938 -165.023438 C 50.148438 -165.023438 29.164062 -158.796875 11.558594 -148.128906 L 11.558594 -114.875 L 16.894531 -114.875 C 26.140625 -134.613281 57.257812 -150.085938 75.21875 -150.085938 C 84.644531 -150.085938 91.578125 -146.171875 91.578125 -136.925781 C 91.578125 -103.671875 7.644531 -64.195312 7.644531 -23.296875 L 7.644531 0.179688 Z M 117.1875 0 "/></g></g></g></svg>