<svg xmlns="http://www.w3.org/2000/svg" xmlns:xlink="http://www.w3.org/1999/xlink" zoomAndPan="magnify" preserveAspectRatio="xMidYMid meet" version="1.0" viewBox="461.18 423.43 654.63 95.68"><defs><g/></defs><g fill="#ffffff" fill-opacity="1"><g transform="translate(457.120668, 517.408175)"><g><path d="M 85.4375 -5.28125 C 83.28125 -2.800781 80.960938 -1.019531 78.484375 0.0625 C 76.003906 1.144531 73.003906 1.6875 69.484375 1.6875 C 64.835938 1.6875 61.175781 0.707031 58.5 -1.25 C 55.820312 -3.21875 54.082031 -6.5625 53.28125 -11.28125 L 51.125 -23.28125 C 50.082031 -29.125 48.820312 -33.421875 47.34375 -36.171875 C 45.863281 -38.929688 43.398438 -40.3125 39.953125 -40.3125 L 32.15625 -40.3125 L 32.15625 -12.71875 C 32.15625 -9.675781 32.375 -7.472656 32.8125 -6.109375 C 33.257812 -4.753906 34.082031 -3.835938 35.28125 -3.359375 C 36.476562 -2.878906 38.4375 -2.5625 41.15625 -2.40625 L 41.15625 0 C 36.84375 -0.238281 30.804688 -0.359375 23.046875 -0.359375 C 14.484375 -0.359375 8.160156 -0.238281 4.078125 0 L 4.078125 -2.40625 C 6.722656 -2.5625 8.664062 -2.878906 9.90625 -3.359375 C 11.144531 -3.835938 11.984375 -4.753906 12.421875 -6.109375 C 12.859375 -7.472656 13.078125 -9.675781 13.078125 -12.71875 L 13.078125 -72.234375 C 13.078125 -75.273438 12.859375 -77.472656 12.421875 -78.828125 C 11.984375 -80.191406 11.144531 -81.113281 9.90625 -81.59375 C 8.664062 -82.070312 6.722656 -82.394531 4.078125 -82.5625 L 4.078125 -84.953125 C 8.160156 -84.710938 14.238281 -84.59375 22.3125 -84.59375 L 35.640625 -84.71875 C 37.242188 -84.800781 39.082031 -84.84375 41.15625 -84.84375 C 52.195312 -84.84375 60.5 -83.039062 66.0625 -79.4375 C 71.625 -75.84375 74.40625 -70.679688 74.40625 -63.953125 C 74.40625 -58.273438 72.320312 -53.273438 68.15625 -48.953125 C 64 -44.640625 57.117188 -41.921875 47.515625 -40.796875 C 54.710938 -40.160156 60.070312 -38.601562 63.59375 -36.125 C 67.113281 -33.644531 69.394531 -29.921875 70.4375 -24.953125 L 73.203125 -12.59375 C 73.835938 -9.394531 74.578125 -7.15625 75.421875 -5.875 C 76.265625 -4.59375 77.441406 -3.953125 78.953125 -3.953125 C 79.921875 -4.035156 80.742188 -4.273438 81.421875 -4.671875 C 82.097656 -5.078125 82.878906 -5.757812 83.765625 -6.71875 Z M 39.59375 -82.5625 C 37.4375 -82.5625 35.859375 -82.28125 34.859375 -81.71875 C 33.859375 -81.15625 33.15625 -80.15625 32.75 -78.71875 C 32.351562 -77.28125 32.15625 -75.117188 32.15625 -72.234375 L 32.15625 -42.71875 L 37.3125 -42.71875 C 43.875 -42.71875 48.375 -44.457031 50.8125 -47.9375 C 53.257812 -51.414062 54.484375 -56.316406 54.484375 -62.640625 C 54.484375 -69.203125 53.320312 -74.160156 51 -77.515625 C 48.675781 -80.878906 44.875 -82.5625 39.59375 -82.5625 Z M 39.59375 -82.5625 "/></g></g></g><g fill="#ffffff" fill-opacity="1"><g transform="translate(538.360709, 517.408175)"><g><path d="M 18.484375 -93 C 21.835938 -93 24.492188 -92.175781 26.453125 -90.53125 C 28.421875 -88.894531 29.40625 -86.640625 29.40625 -83.765625 C 29.40625 -80.878906 28.421875 -78.613281 26.453125 -76.96875 C 24.492188 -75.332031 21.835938 -74.515625 18.484375 -74.515625 C 15.117188 -74.515625 12.457031 -75.332031 10.5 -76.96875 C 8.539062 -78.613281 7.5625 -80.878906 7.5625 -83.765625 C 7.5625 -86.640625 8.539062 -88.894531 10.5 -90.53125 C 12.457031 -92.175781 15.117188 -93 18.484375 -93 Z M 27.84375 -11.15625 C 27.84375 -7.875 28.421875 -5.613281 29.578125 -4.375 C 30.734375 -3.132812 32.710938 -2.515625 35.515625 -2.515625 L 35.515625 0 C 27.515625 -0.320312 22.195312 -0.484375 19.5625 -0.484375 C 17.082031 -0.484375 11.519531 -0.320312 2.875 0 L 2.875 -2.515625 C 5.757812 -2.515625 7.757812 -3.132812 8.875 -4.375 C 10 -5.613281 10.5625 -7.875 10.5625 -11.15625 L 10.5625 -48.953125 C 10.5625 -52.640625 10 -55.320312 8.875 -57 C 7.757812 -58.675781 5.757812 -59.515625 2.875 -59.515625 L 2.875 -62.046875 C 5.4375 -61.804688 7.914062 -61.6875 10.3125 -61.6875 C 17.4375 -61.6875 23.28125 -62.242188 27.84375 -63.359375 Z M 27.84375 -11.15625 "/></g></g></g><g fill="#ffffff" fill-opacity="1"><g transform="translate(574.360725, 517.408175)"><g><path d="M 61.921875 -13.203125 C 61.921875 -9.523438 62.476562 -6.84375 63.59375 -5.15625 C 64.71875 -3.476562 66.71875 -2.640625 69.59375 -2.640625 L 69.59375 -0.125 C 67.113281 -0.363281 64.632812 -0.484375 62.15625 -0.484375 C 55.039062 -0.484375 49.203125 0.078125 44.640625 1.203125 L 44.640625 -9.125 C 41.921875 -1.914062 36.722656 1.6875 29.046875 1.6875 C 21.523438 1.6875 15.539062 -1.050781 11.09375 -6.53125 C 6.65625 -12.019531 4.476562 -20.28125 4.5625 -31.3125 C 4.5625 -38.351562 5.703125 -44.296875 7.984375 -49.140625 C 10.265625 -53.984375 13.421875 -57.625 17.453125 -60.0625 C 21.492188 -62.5 26.113281 -63.71875 31.3125 -63.71875 C 37.15625 -63.71875 41.597656 -62.195312 44.640625 -59.15625 L 44.640625 -79.5625 C 44.640625 -83.238281 44.054688 -85.914062 42.890625 -87.59375 C 41.734375 -89.28125 39.753906 -90.125 36.953125 -90.125 L 36.953125 -92.640625 C 39.515625 -92.398438 42 -92.28125 44.40625 -92.28125 C 51.363281 -92.28125 57.203125 -92.835938 61.921875 -93.953125 Z M 33.953125 -3.484375 C 36.597656 -3.484375 38.941406 -4.441406 40.984375 -6.359375 C 43.023438 -8.273438 44.242188 -10.875 44.640625 -14.15625 L 44.640625 -56.15625 C 42.640625 -58.875 39.71875 -60.234375 35.875 -60.234375 C 31.632812 -60.234375 28.351562 -57.789062 26.03125 -52.90625 C 23.71875 -48.03125 22.601562 -40.753906 22.6875 -31.078125 C 22.601562 -21.316406 23.539062 -14.273438 25.5 -9.953125 C 27.457031 -5.640625 30.273438 -3.484375 33.953125 -3.484375 Z M 33.953125 -3.484375 "/></g></g></g><g fill="#ffffff" fill-opacity="1"><g transform="translate(644.320754, 517.408175)"><g><path d="M 38.15625 -8.15625 C 44.71875 -8.15625 50 -11.359375 54 -17.765625 L 56.15625 -17.046875 C 54.5625 -11.835938 51.703125 -7.410156 47.578125 -3.765625 C 43.460938 -0.128906 38.320312 1.6875 32.15625 1.6875 C 23.675781 1.6875 16.9375 -1.007812 11.9375 -6.40625 C 6.9375 -11.8125 4.4375 -19.796875 4.4375 -30.359375 C 4.4375 -41.160156 7.113281 -49.421875 12.46875 -55.140625 C 17.832031 -60.859375 24.957031 -63.71875 33.84375 -63.71875 C 48.882812 -63.71875 56.40625 -54.835938 56.40625 -37.078125 L 22.6875 -37.078125 C 22.601562 -35.878906 22.5625 -34 22.5625 -31.4375 C 22.5625 -26.15625 23.300781 -21.753906 24.78125 -18.234375 C 26.257812 -14.710938 28.175781 -12.148438 30.53125 -10.546875 C 32.894531 -8.953125 35.4375 -8.15625 38.15625 -8.15625 Z M 33.125 -61.203125 C 30.238281 -61.203125 27.851562 -59.421875 25.96875 -55.859375 C 24.09375 -52.296875 22.914062 -46.796875 22.4375 -39.359375 L 41.28125 -39.359375 C 41.4375 -45.679688 40.8125 -50.898438 39.40625 -55.015625 C 38.007812 -59.140625 35.914062 -61.203125 33.125 -61.203125 Z M 33.125 -61.203125 "/></g></g></g><g fill="#ffffff" fill-opacity="1"><g transform="translate(729.160792, 517.408175)"><g><path d="M 105.84375 -69.71875 C 105.84375 -63.800781 103.78125 -59.179688 99.65625 -55.859375 C 95.539062 -52.535156 89.484375 -50.035156 81.484375 -48.359375 L 79.3125 -47.640625 C 82.914062 -46.035156 85.675781 -43.472656 87.59375 -39.953125 C 89.519531 -36.441406 90.484375 -32.363281 90.484375 -27.71875 C 90.484375 -22.113281 88.757812 -17.09375 85.3125 -12.65625 C 81.875 -8.21875 77.015625 -4.71875 70.734375 -2.15625 C 64.453125 0.40625 57.234375 1.6875 49.078125 1.6875 C 40.273438 1.6875 32.535156 0.488281 25.859375 -1.90625 C 19.179688 -4.3125 14.019531 -7.773438 10.375 -12.296875 C 6.738281 -16.816406 4.921875 -22.117188 4.921875 -28.203125 C 4.921875 -33.640625 6.359375 -38.21875 9.234375 -41.9375 C 12.117188 -45.65625 15.378906 -48.472656 19.015625 -50.390625 C 22.660156 -52.316406 26.082031 -53.679688 29.28125 -54.484375 C 20.238281 -58.078125 15.71875 -63.113281 15.71875 -69.59375 C 15.71875 -74.476562 18.078125 -78.300781 22.796875 -81.0625 C 27.515625 -83.820312 33.113281 -85.203125 39.59375 -85.203125 C 42.5625 -85.203125 45.003906 -85 46.921875 -84.59375 C 48.835938 -84.195312 50.554688 -83.5625 52.078125 -82.6875 C 54.234375 -81.644531 55.992188 -80.320312 57.359375 -78.71875 C 58.722656 -77.113281 59.40625 -75.191406 59.40625 -72.953125 C 59.40625 -70.640625 58.503906 -68.742188 56.703125 -67.265625 C 54.898438 -65.785156 52.71875 -65.046875 50.15625 -65.046875 C 47.59375 -65.046875 45.492188 -65.679688 43.859375 -66.953125 C 42.222656 -68.234375 41.40625 -70.078125 41.40625 -72.484375 C 41.40625 -74.484375 42.125 -76.300781 43.5625 -77.9375 C 45 -79.582031 46.835938 -80.601562 49.078125 -81 C 48.359375 -81.632812 47.28125 -82.148438 45.84375 -82.546875 C 44.40625 -82.953125 42.84375 -83.15625 41.15625 -83.15625 C 36.757812 -83.15625 33.160156 -81.796875 30.359375 -79.078125 C 27.554688 -76.359375 26.15625 -72.476562 26.15625 -67.4375 C 26.15625 -62.800781 27.71875 -58.722656 30.84375 -55.203125 C 33.800781 -55.835938 36.039062 -56.15625 37.5625 -56.15625 C 39 -56.15625 40.097656 -55.851562 40.859375 -55.25 C 41.617188 -54.65625 42 -53.878906 42 -52.921875 C 42 -52.117188 41.675781 -51.5 41.03125 -51.0625 C 40.394531 -50.625 39.597656 -50.40625 38.640625 -50.40625 C 37.441406 -50.40625 36.28125 -50.679688 35.15625 -51.234375 C 34.039062 -51.796875 32.640625 -52.554688 30.953125 -53.515625 C 26.878906 -51.441406 23.738281 -48.863281 21.53125 -45.78125 C 19.332031 -42.695312 18.234375 -38.796875 18.234375 -34.078125 C 18.234375 -26.316406 21.332031 -20.492188 27.53125 -16.609375 C 33.738281 -12.734375 42.320312 -10.796875 53.28125 -10.796875 C 58.800781 -10.796875 64.097656 -11.613281 69.171875 -13.25 C 74.253906 -14.894531 78.375 -17.296875 81.53125 -20.453125 C 84.695312 -23.617188 86.28125 -27.363281 86.28125 -31.6875 C 86.28125 -39.039062 83.238281 -44.117188 77.15625 -46.921875 L 69.484375 -44.765625 C 65.003906 -43.484375 62.765625 -42.84375 62.765625 -42.84375 C 56.046875 -41.320312 51.125 -39.71875 48 -38.03125 C 44.875 -36.351562 43.3125 -34.078125 43.3125 -31.203125 C 43.3125 -28.316406 44.648438 -25.972656 47.328125 -24.171875 C 50.015625 -22.378906 53 -21.484375 56.28125 -21.484375 C 57.15625 -21.484375 58.09375 -21.601562 59.09375 -21.84375 C 60.09375 -22.082031 60.753906 -22.363281 61.078125 -22.6875 C 59.160156 -23.320312 57.679688 -24.316406 56.640625 -25.671875 C 55.597656 -27.035156 55.078125 -28.675781 55.078125 -30.59375 C 55.078125 -33.070312 55.976562 -35.007812 57.78125 -36.40625 C 59.582031 -37.8125 61.882812 -38.515625 64.6875 -38.515625 C 67.5625 -38.515625 69.816406 -37.773438 71.453125 -36.296875 C 73.097656 -34.816406 73.921875 -32.835938 73.921875 -30.359375 C 73.921875 -26.753906 72.316406 -24.03125 69.109375 -22.1875 C 65.910156 -20.351562 61.832031 -19.4375 56.875 -19.4375 C 51.757812 -19.4375 47.5 -20.753906 44.09375 -23.390625 C 40.695312 -26.035156 39 -29.835938 39 -34.796875 C 39 -40.796875 41.28125 -45.554688 45.84375 -49.078125 C 50.40625 -52.597656 57.082031 -55.195312 65.875 -56.875 L 71.046875 -58.203125 C 76.242188 -59.398438 80.484375 -60.5625 83.765625 -61.6875 C 89.921875 -63.195312 94.476562 -64.851562 97.4375 -66.65625 C 100.394531 -68.457031 101.875 -70.757812 101.875 -73.5625 C 101.875 -76.675781 100.492188 -79.273438 97.734375 -81.359375 C 94.972656 -83.441406 91.832031 -84.484375 88.3125 -84.484375 C 86.800781 -84.484375 85.644531 -84.28125 84.84375 -83.875 C 86.675781 -83.15625 88.113281 -82.09375 89.15625 -80.6875 C 90.195312 -79.289062 90.71875 -77.832031 90.71875 -76.3125 C 90.71875 -73.914062 89.816406 -72.035156 88.015625 -70.671875 C 86.210938 -69.316406 83.914062 -68.640625 81.125 -68.640625 C 78.320312 -68.640625 76.0625 -69.335938 74.34375 -70.734375 C 72.625 -72.140625 71.765625 -74.082031 71.765625 -76.5625 C 71.765625 -79.675781 73.125 -82.132812 75.84375 -83.9375 C 78.5625 -85.738281 82.203125 -86.640625 86.765625 -86.640625 C 92.523438 -86.640625 97.144531 -85.140625 100.625 -82.140625 C 104.101562 -79.140625 105.84375 -75 105.84375 -69.71875 Z M 105.84375 -69.71875 "/></g></g></g><g fill="#ffffff" fill-opacity="1"><g transform="translate(835.120854, 517.408175)"><g/></g></g><g fill="#ffffff" fill-opacity="1"><g transform="translate(861.280878, 517.408175)"><g><path d="M 85.4375 -5.28125 C 83.28125 -2.800781 80.960938 -1.019531 78.484375 0.0625 C 76.003906 1.144531 73.003906 1.6875 69.484375 1.6875 C 64.835938 1.6875 61.175781 0.707031 58.5 -1.25 C 55.820312 -3.21875 54.082031 -6.5625 53.28125 -11.28125 L 51.125 -23.28125 C 50.082031 -29.125 48.820312 -33.421875 47.34375 -36.171875 C 45.863281 -38.929688 43.398438 -40.3125 39.953125 -40.3125 L 32.15625 -40.3125 L 32.15625 -12.71875 C 32.15625 -9.675781 32.375 -7.472656 32.8125 -6.109375 C 33.257812 -4.753906 34.082031 -3.835938 35.28125 -3.359375 C 36.476562 -2.878906 38.4375 -2.5625 41.15625 -2.40625 L 41.15625 0 C 36.84375 -0.238281 30.804688 -0.359375 23.046875 -0.359375 C 14.484375 -0.359375 8.160156 -0.238281 4.078125 0 L 4.078125 -2.40625 C 6.722656 -2.5625 8.664062 -2.878906 9.90625 -3.359375 C 11.144531 -3.835938 11.984375 -4.753906 12.421875 -6.109375 C 12.859375 -7.472656 13.078125 -9.675781 13.078125 -12.71875 L 13.078125 -72.234375 C 13.078125 -75.273438 12.859375 -77.472656 12.421875 -78.828125 C 11.984375 -80.191406 11.144531 -81.113281 9.90625 -81.59375 C 8.664062 -82.070312 6.722656 -82.394531 4.078125 -82.5625 L 4.078125 -84.953125 C 8.160156 -84.710938 14.238281 -84.59375 22.3125 -84.59375 L 35.640625 -84.71875 C 37.242188 -84.800781 39.082031 -84.84375 41.15625 -84.84375 C 52.195312 -84.84375 60.5 -83.039062 66.0625 -79.4375 C 71.625 -75.84375 74.40625 -70.679688 74.40625 -63.953125 C 74.40625 -58.273438 72.320312 -53.273438 68.15625 -48.953125 C 64 -44.640625 57.117188 -41.921875 47.515625 -40.796875 C 54.710938 -40.160156 60.070312 -38.601562 63.59375 -36.125 C 67.113281 -33.644531 69.394531 -29.921875 70.4375 -24.953125 L 73.203125 -12.59375 C 73.835938 -9.394531 74.578125 -7.15625 75.421875 -5.875 C 76.265625 -4.59375 77.441406 -3.953125 78.953125 -3.953125 C 79.921875 -4.035156 80.742188 -4.273438 81.421875 -4.671875 C 82.097656 -5.078125 82.878906 -5.757812 83.765625 -6.71875 Z M 39.59375 -82.5625 C 37.4375 -82.5625 35.859375 -82.28125 34.859375 -81.71875 C 33.859375 -81.15625 33.15625 -80.15625 32.75 -78.71875 C 32.351562 -77.28125 32.15625 -75.117188 32.15625 -72.234375 L 32.15625 -42.71875 L 37.3125 -42.71875 C 43.875 -42.71875 48.375 -44.457031 50.8125 -47.9375 C 53.257812 -51.414062 54.484375 -56.316406 54.484375 -62.640625 C 54.484375 -69.203125 53.320312 -74.160156 51 -77.515625 C 48.675781 -80.878906 44.875 -82.5625 39.59375 -82.5625 Z M 39.59375 -82.5625 "/></g></g></g><g fill="#ffffff" fill-opacity="1"><g transform="translate(942.520925, 517.408175)"><g><path d="M 38.15625 -8.15625 C 44.71875 -8.15625 50 -11.359375 54 -17.765625 L 56.15625 -17.046875 C 54.5625 -11.835938 51.703125 -7.410156 47.578125 -3.765625 C 43.460938 -0.128906 38.320312 1.6875 32.15625 1.6875 C 23.675781 1.6875 16.9375 -1.007812 11.9375 -6.40625 C 6.9375 -11.8125 4.4375 -19.796875 4.4375 -30.359375 C 4.4375 -41.160156 7.113281 -49.421875 12.46875 -55.140625 C 17.832031 -60.859375 24.957031 -63.71875 33.84375 -63.71875 C 48.882812 -63.71875 56.40625 -54.835938 56.40625 -37.078125 L 22.6875 -37.078125 C 22.601562 -35.878906 22.5625 -34 22.5625 -31.4375 C 22.5625 -26.15625 23.300781 -21.753906 24.78125 -18.234375 C 26.257812 -14.710938 28.175781 -12.148438 30.53125 -10.546875 C 32.894531 -8.953125 35.4375 -8.15625 38.15625 -8.15625 Z M 33.125 -61.203125 C 30.238281 -61.203125 27.851562 -59.421875 25.96875 -55.859375 C 24.09375 -52.296875 22.914062 -46.796875 22.4375 -39.359375 L 41.28125 -39.359375 C 41.4375 -45.679688 40.8125 -50.898438 39.40625 -55.015625 C 38.007812 -59.140625 35.914062 -61.203125 33.125 -61.203125 Z M 33.125 -61.203125 "/></g></g></g><g fill="#ffffff" fill-opacity="1"><g transform="translate(1001.20096, 517.408175)"><g><path d="M 47.515625 -63.71875 C 53.597656 -63.71875 58 -62.160156 60.71875 -59.046875 C 62.082031 -57.523438 63.039062 -55.5625 63.59375 -53.15625 C 64.15625 -50.757812 64.4375 -47.519531 64.4375 -43.4375 L 64.4375 -11.15625 C 64.4375 -7.875 65.015625 -5.613281 66.171875 -4.375 C 67.335938 -3.132812 69.320312 -2.515625 72.125 -2.515625 L 72.125 0 C 64.125 -0.320312 58.84375 -0.484375 56.28125 -0.484375 C 53.882812 -0.484375 48.6875 -0.320312 40.6875 0 L 40.6875 -2.515625 C 43.082031 -2.515625 44.757812 -3.132812 45.71875 -4.375 C 46.675781 -5.613281 47.15625 -7.875 47.15625 -11.15625 L 47.15625 -48.484375 C 47.15625 -51.765625 46.613281 -54.242188 45.53125 -55.921875 C 44.457031 -57.597656 42.519531 -58.4375 39.71875 -58.4375 C 36.4375 -58.4375 33.632812 -57.097656 31.3125 -54.421875 C 29 -51.742188 27.84375 -48.441406 27.84375 -44.515625 L 27.84375 -11.15625 C 27.84375 -7.875 28.320312 -5.613281 29.28125 -4.375 C 30.238281 -3.132812 31.914062 -2.515625 34.3125 -2.515625 L 34.3125 0 C 26.957031 -0.320312 22 -0.484375 19.4375 -0.484375 C 17.039062 -0.484375 11.519531 -0.320312 2.875 0 L 2.875 -2.515625 C 5.757812 -2.515625 7.757812 -3.132812 8.875 -4.375 C 10 -5.613281 10.5625 -7.875 10.5625 -11.15625 L 10.5625 -48.953125 C 10.5625 -52.640625 10 -55.320312 8.875 -57 C 7.757812 -58.675781 5.757812 -59.515625 2.875 -59.515625 L 2.875 -62.046875 C 5.4375 -61.804688 7.914062 -61.6875 10.3125 -61.6875 C 17.4375 -61.6875 23.28125 -62.242188 27.84375 -63.359375 L 27.84375 -52.5625 C 31.4375 -60 37.992188 -63.71875 47.515625 -63.71875 Z M 47.515625 -63.71875 "/></g></g></g><g fill="#ffffff" fill-opacity="1"><g transform="translate(1073.080976, 517.408175)"><g><path d="M 27.234375 -62.046875 L 41.40625 -62.046875 L 41.40625 -59.640625 L 27.234375 -59.640625 L 27.234375 -11.15625 C 27.234375 -8.757812 27.65625 -7.0625 28.5 -6.0625 C 29.34375 -5.0625 30.679688 -4.5625 32.515625 -4.5625 C 35.960938 -4.5625 38.6875 -6.960938 40.6875 -11.765625 L 42.71875 -10.6875 C 39.675781 -2.4375 34.195312 1.6875 26.28125 1.6875 C 21 1.6875 17 0.320312 14.28125 -2.40625 C 12.601562 -4.082031 11.460938 -6.179688 10.859375 -8.703125 C 10.253906 -11.222656 9.953125 -14.679688 9.953125 -19.078125 L 9.953125 -59.640625 L -0.125 -59.640625 L -0.125 -62.046875 L 9.953125 -62.046875 L 9.953125 -77.875 C 16.597656 -77.875 22.359375 -79.15625 27.234375 -81.71875 Z M 27.234375 -62.046875 "/></g></g></g></svg>
