<svg xmlns="http://www.w3.org/2000/svg" viewBox="0 0 32 32" id="trash"><path fill="#eef5fd" d="M26.75,5.34A1,1,0,0,0,26,5H6a1,1,0,0,0-.75.34A1,1,0,0,0,5,6.12L7.79,28.37a3,3,0,0,0,3,2.63H21.23a3,3,0,0,0,3-2.63L27,6.12A1,1,0,0,0,26.75,5.34Z"></path><path fill="#d7e2f2" d="M27,6.12,26.88,7,24.21,28.37a3,3,0,0,1-3,2.63H16V5H26a1,1,0,0,1,.75.34A1,1,0,0,1,27,6.12Z"></path><path fill="#ffc661" d="M30,5H21.9A5,5,0,0,0,17,1H15a5,5,0,0,0-4.9,4H2A1,1,0,0,0,2,7H30a1,1,0,0,0,0-2ZM12.17,5A3,3,0,0,1,15,3h2a3,3,0,0,1,2.83,2Z"></path><path fill="#e49f4e" d="M30,5H21.9A5,5,0,0,0,17,1H16V3h1a3,3,0,0,1,2.83,2H16V7H30a1,1,0,0,0,0-2Z"></path></svg>