<svg xmlns="http://www.w3.org/2000/svg" data-name="Layer 1" viewBox="0 0 32 32" id="home"><defs><linearGradient id="a" x1="6.29" x2="25.71" y1="10.71" y2="30.12" gradientUnits="userSpaceOnUse"><stop offset="0" stop-color="#f4eeec"></stop><stop offset="1" stop-color="#de856d"></stop></linearGradient><linearGradient id="b" x1="5.59" x2="26.41" y1="10" y2="30.83" gradientUnits="userSpaceOnUse"><stop offset="0" stop-color="#92278f"></stop><stop offset="1" stop-color="#262262"></stop></linearGradient></defs><path fill="url(#a)" d="M14.64 3.26 2 15h3v13a2 2 0 0 0 2 2h18a2 2 0 0 0 2-2V15h3L17.36 3.26a2 2 0 0 0-2.72 0Z"></path><path fill="url(#b)" d="M25 31H7a3 3 0 0 1-3-3V16H2a1 1 0 0 1-.68-1.73L14 2.53a3 3 0 0 1 4.08 0l12.6 11.74A1 1 0 0 1 30 16h-2v12a3 3 0 0 1-3 3ZM4.55 14H5a1 1 0 0 1 1 1v13a1 1 0 0 0 1 1h18a1 1 0 0 0 1-1V15a1 1 0 0 1 1-1h.45L16.68 4a1 1 0 0 0-1.36 0Z"></path></svg>