<svg xmlns="http://www.w3.org/2000/svg" xmlns:xlink="http://www.w3.org/1999/xlink" width="500" zoomAndPan="magnify" viewBox="0 0 375 374.999991" height="500" preserveAspectRatio="xMidYMid meet" version="1.0"><defs><g/><clipPath id="2ebb0602d7"><path d="M 6.449219 106.527344 L 211.324219 106.527344 L 211.324219 285.535156 L 6.449219 285.535156 Z M 6.449219 106.527344 " clip-rule="nonzero"/></clipPath><clipPath id="d75a23c680"><path d="M 109.035156 285.535156 L 6.746094 106.527344 L 211.324219 106.527344 Z M 109.035156 285.535156 " clip-rule="nonzero"/></clipPath></defs><g clip-path="url(#2ebb0602d7)"><g clip-path="url(#d75a23c680)"><path fill="#303030" d="M 211.324219 285.535156 L 6.449219 285.535156 L 6.449219 106.527344 L 211.324219 106.527344 Z M 211.324219 285.535156 " fill-opacity="1" fill-rule="nonzero"/></g></g><g fill="#303030" fill-opacity="1"><g transform="translate(189.749992, 245.862154)"><g><path d="M 43.4375 -7.65625 C 31.09375 -14.726562 22.25 -23.734375 16.90625 -34.671875 C 11.5625 -45.617188 8.890625 -56.847656 8.890625 -68.359375 C 8.890625 -82.179688 12.300781 -94.476562 19.125 -105.25 C 25.957031 -116.03125 35.171875 -124.421875 46.765625 -130.421875 C 58.367188 -136.429688 71 -139.4375 84.65625 -139.4375 L 88.359375 -139.4375 L 88.359375 1.234375 C 79.140625 1.234375 70.5 0.410156 62.4375 -1.234375 C 54.375 -2.878906 48.039062 -5.019531 43.4375 -7.65625 Z M 179.671875 -139.4375 L 179.671875 38.25 L 104.390625 38.25 L 104.390625 -139.4375 Z M 179.671875 -139.4375 "/></g></g></g></svg>