<svg xmlns="http://www.w3.org/2000/svg" id="Layer_1" data-name="Layer 1" version="1.1" viewBox="0 0 500 500">
  <defs>
    <style>
      .cls-1 {
        fill: #ffd52c;
        stroke-width: 0px;
      }
    </style>
  </defs>
  <path class="cls-1" d="M250,0C111.9,0,0,111.9,0,250s111.9,250,250,250,250-111.9,250-250S388.1,0,250,0ZM228.4,437.6v-144.8c-2.1,2.8-4.4,5.6-7,8.2l-94.1,94.1-24.7-24.7,99.5-99.5H61.5v-34.9h133.1c3.5,0,7,.3,10.4.8l-102.3-102.3,24.7-24.7c1.4,1.4,53.3,53.3,94.1,94.1l41.9,100.9v133h-34.9ZM397.4,365.8l-24.7,24.7-80.1-80.1c-9.2-9.2-16.6-20.2-21.6-32.3l-26.7-64.3c-5-12.1-7.6-25.1-7.6-38.2V62.4h34.9v144.9c2.1-2.8,4.4-5.6,7-8.1,40.8-40.8,92.7-92.7,94.1-94.1l24.7,24.7-99.6,99.6h140.7v34.9h-133c-3.5,0-7-.3-10.4-.8l102.3,102.3h0Z"/>
</svg>