<?xml version="1.0" encoding="UTF-8"?>
<svg xmlns="http://www.w3.org/2000/svg" xmlns:xlink="http://www.w3.org/1999/xlink" version="1.1" viewBox="0 0 2400 910.4">
  <defs>
    <style>
      .cls-1 {
        stroke: url(#radial-gradient);
      }

      .cls-1, .cls-2, .cls-3 {
        fill: none;
      }

      .cls-1, .cls-3 {
        stroke-width: .8px;
      }

      .cls-4 {
        clip-path: url(#clippath);
      }

      .cls-2 {
        stroke-width: 0px;
      }

      .cls-5, .cls-6 {
        mix-blend-mode: soft-light;
      }

      .cls-7 {
        isolation: isolate;
      }

      .cls-3 {
        stroke: url(#radial-gradient-2);
      }

      .cls-6 {
        opacity: .5;
      }
    </style>
    <clipPath id="clippath">
      <rect class="cls-2" x="-473.3" width="3008.5" height="910.4"/>
    </clipPath>
    <radialGradient id="radial-gradient" cx="902.3" cy="873.3" fx="902.3" fy="873.3" r="1" gradientTransform="translate(-866766.7 -487222.8) rotate(90) scale(540.4 -993.9)" gradientUnits="userSpaceOnUse">
      <stop offset=".7" stop-color="#fff"/>
      <stop offset="1" stop-color="#fff" stop-opacity=".2"/>
    </radialGradient>
    <radialGradient id="radial-gradient-2" cx="902.2" cy="873.5" fx="902.2" fy="873.5" r="1" gradientTransform="translate(-966350.4 -534450.6) rotate(90) scale(592.7 -1107.7)" gradientUnits="userSpaceOnUse">
      <stop offset=".7" stop-color="#fff"/>
      <stop offset="1" stop-color="#fff" stop-opacity=".2"/>
    </radialGradient>
  </defs>
  <g class="cls-7">
    <g id="Layer_1" data-name="Layer 1">
      <g class="cls-4">
        <g>
          <g class="cls-5">
            <path class="cls-1" d="M219.1,35.9v15.7M219.1,51.6v15.7M219.1,51.6h-16.6M219.1,51.6h16.6M219.1,455.6v15.7M219.1,471.4v15.7M219.1,471.4h-16.6M219.1,471.4h16.6M219.1,875.3v15.7M219.1,891.1v15.7M219.1,891.1h-16.6M219.1,891.1h16.6M660.6,35.9v15.7M660.6,51.6v15.7M660.6,51.6h-16.6M660.6,51.6h16.6M660.6,455.6v15.7M660.6,471.4v15.7M660.6,471.4h-16.6M660.6,471.4h16.6M660.6,875.3v15.7M660.6,891.1v15.7M660.6,891.1h-16.6M660.6,891.1h16.6M1102.2,35.9v15.7M1102.2,51.6v15.7M1102.2,51.6h-16.6M1102.2,51.6h16.6M1102.2,455.6v15.7M1102.2,471.4v15.7M1102.2,471.4h-16.6M1102.2,471.4h16.6M1102.2,875.3v15.7M1102.2,891.1v15.7M1102.2,891.1h-16.6M1102.2,891.1h16.6M1543.7,35.9v15.7M1543.7,51.6v15.7M1543.7,51.6h-16.5M1543.7,51.6h16.6M1543.7,455.6v15.7M1543.7,471.4v15.7M1543.7,471.4h-16.5M1543.7,471.4h16.6M1543.7,875.3v15.7M1543.7,891.1v15.7M1543.7,891.1h-16.5M1543.7,891.1h16.6M1985.2,35.9v15.7M1985.2,51.6v15.7M1985.2,51.6h-16.6M1985.2,51.6h16.6M1985.2,455.6v15.7M1985.2,471.4v15.7M1985.2,471.4h-16.6M1985.2,471.4h16.6M1985.2,875.3v15.7M1985.2,891.1v15.7M1985.2,891.1h-16.6M1985.2,891.1h16.6M2426.8,35.9v15.7M2426.8,51.6v15.7M2426.8,51.6h-16.6M2426.8,51.6h16.6M2426.8,455.6v15.7M2426.8,471.4v15.7M2426.8,471.4h-16.6M2426.8,471.4h16.6M2426.8,875.3v15.7M2426.8,891.1v15.7M2426.8,891.1h-16.6M2426.8,891.1h16.6M219.1-174v15.7M219.1-158.2v15.7M219.1-158.2h-16.6M219.1-158.2h16.6M219.1,245.8v15.7M219.1,261.5v15.7M219.1,261.5h-16.6M219.1,261.5h16.6M219.1,665.5v15.7M219.1,681.2v15.7M219.1,681.2h-16.6M219.1,681.2h16.6M660.6-174v15.7M660.6-158.2v15.7M660.6-158.2h-16.6M660.6-158.2h16.6M660.6,245.8v15.7M660.6,261.5v15.7M660.6,261.5h-16.6M660.6,261.5h16.6M660.6,665.5v15.7M660.6,681.2v15.7M660.6,681.2h-16.6M660.6,681.2h16.6M1102.2-174v15.7M1102.2-158.2v15.7M1102.2-158.2h-16.6M1102.2-158.2h16.6M1102.2,245.8v15.7M1102.2,261.5v15.7M1102.2,261.5h-16.6M1102.2,261.5h16.6M1102.2,665.5v15.7M1102.2,681.2v15.7M1102.2,681.2h-16.6M1102.2,681.2h16.6M1543.7-174v15.7M1543.7-158.2v15.7M1543.7-158.2h-16.5M1543.7-158.2h16.6M1543.7,245.8v15.7M1543.7,261.5v15.7M1543.7,261.5h-16.5M1543.7,261.5h16.6M1543.7,665.5v15.7M1543.7,681.2v15.7M1543.7,681.2h-16.5M1543.7,681.2h16.6M1985.2-174v15.7M1985.2-158.2v15.7M1985.2-158.2h-16.6M1985.2-158.2h16.6M1985.2,245.8v15.7M1985.2,261.5v15.7M1985.2,261.5h-16.6M1985.2,261.5h16.6M1985.2,665.5v15.7M1985.2,681.2v15.7M1985.2,681.2h-16.6M1985.2,681.2h16.6M2426.8-174v15.7M2426.8-158.2v15.7M2426.8-158.2h-16.6M2426.8-158.2h16.6M2426.8,245.8v15.7M2426.8,261.5v15.7M2426.8,261.5h-16.6M2426.8,261.5h16.6M2426.8,665.5v15.7M2426.8,681.2v15.7M2426.8,681.2h-16.6M2426.8,681.2h16.6M-1.7,35.9v15.7M-1.7,51.6v15.7M-1.7,51.6h-16.6M-1.7,51.6H14.9M-1.7,455.6v15.7M-1.7,471.4v15.7M-1.7,471.4h-16.6M-1.7,471.4H14.9M-1.7,875.3v15.7M-1.7,891.1v15.7M-1.7,891.1h-16.6M-1.7,891.1H14.9M439.9,35.9v15.7M439.9,51.6v15.7M439.9,51.6h-16.6M439.9,51.6h16.6M439.9,455.6v15.7M439.9,471.4v15.7M439.9,471.4h-16.6M439.9,471.4h16.6M439.9,875.3v15.7M439.9,891.1v15.7M439.9,891.1h-16.6M439.9,891.1h16.6M881.4,35.9v15.7M881.4,51.6v15.7M881.4,51.6h-16.6M881.4,51.6h16.5M881.4,455.6v15.7M881.4,471.4v15.7M881.4,471.4h-16.6M881.4,471.4h16.5M881.4,875.3v15.7M881.4,891.1v15.7M881.4,891.1h-16.6M881.4,891.1h16.5M1322.9,35.9v15.7M1322.9,51.6v15.7M1322.9,51.6h-16.6M1322.9,51.6h16.6M1322.9,455.6v15.7M1322.9,471.4v15.7M1322.9,471.4h-16.6M1322.9,471.4h16.6M1322.9,875.3v15.7M1322.9,891.1v15.7M1322.9,891.1h-16.6M1322.9,891.1h16.6M1764.5,35.9v15.7M1764.5,51.6v15.7M1764.5,51.6h-16.6M1764.5,51.6h16.6M1764.5,455.6v15.7M1764.5,471.4v15.7M1764.5,471.4h-16.6M1764.5,471.4h16.6M1764.5,875.3v15.7M1764.5,891.1v15.7M1764.5,891.1h-16.6M1764.5,891.1h16.6M2206,35.9v15.7M2206,51.6v15.7M2206,51.6h-16.5M2206,51.6h16.6M2206,455.6v15.7M2206,471.4v15.7M2206,471.4h-16.5M2206,471.4h16.6M2206,875.3v15.7M2206,891.1v15.7M2206,891.1h-16.5M2206,891.1h16.6M-1.7-174v15.7M-1.7-158.2v15.7M-1.7-158.2h-16.6M-1.7-158.2H14.9M-1.7,245.8v15.7M-1.7,261.5v15.7M-1.7,261.5h-16.6M-1.7,261.5H14.9M-1.7,665.5v15.7M-1.7,681.2v15.7M-1.7,681.2h-16.6M-1.7,681.2H14.9M439.9-174v15.7M439.9-158.2v15.7M439.9-158.2h-16.6M439.9-158.2h16.6M439.9,245.8v15.7M439.9,261.5v15.7M439.9,261.5h-16.6M439.9,261.5h16.6M439.9,665.5v15.7M439.9,681.2v15.7M439.9,681.2h-16.6M439.9,681.2h16.6M881.4-174v15.7M881.4-158.2v15.7M881.4-158.2h-16.6M881.4-158.2h16.5M881.4,245.8v15.7M881.4,261.5v15.7M881.4,261.5h-16.6M881.4,261.5h16.5M881.4,665.5v15.7M881.4,681.2v15.7M881.4,681.2h-16.6M881.4,681.2h16.5M1322.9-174v15.7M1322.9-158.2v15.7M1322.9-158.2h-16.6M1322.9-158.2h16.6M1322.9,245.8v15.7M1322.9,261.5v15.7M1322.9,261.5h-16.6M1322.9,261.5h16.6M1322.9,665.5v15.7M1322.9,681.2v15.7M1322.9,681.2h-16.6M1322.9,681.2h16.6M1764.5-174v15.7M1764.5-158.2v15.7M1764.5-158.2h-16.6M1764.5-158.2h16.6M1764.5,245.8v15.7M1764.5,261.5v15.7M1764.5,261.5h-16.6M1764.5,261.5h16.6M1764.5,665.5v15.7M1764.5,681.2v15.7M1764.5,681.2h-16.6M1764.5,681.2h16.6M2206-174v15.7M2206-158.2v15.7M2206-158.2h-16.5M2206-158.2h16.6M2206,245.8v15.7M2206,261.5v15.7M2206,261.5h-16.5M2206,261.5h16.6M2206,665.5v15.7M2206,681.2v15.7M2206,681.2h-16.5M2206,681.2h16.6"/>
          </g>
          <g class="cls-6">
            <path class="cls-3" d="M53.5-158.2H-1.7v52.5M53.5-158.2v52.5M53.5-158.2h55.2M53.5-105.8H-1.7M53.5-105.8v52.5M53.5-105.8h55.2M-1.7-105.8v52.5M53.5-53.3H-1.7M53.5-53.3V-.8M53.5-53.3h55.2M-1.7-53.3V-.8M53.5-.8H-1.7M53.5-.8v52.5M53.5-.8h55.2M-1.7-.8v52.5M53.5,51.6H-1.7M53.5,51.6v52.5M53.5,51.6h55.2M-1.7,51.6v52.5M53.5,104.1H-1.7M53.5,104.1v52.5M53.5,104.1h55.2M-1.7,104.1v52.5M53.5,156.6H-1.7M53.5,156.6v52.5M53.5,156.6h55.2M-1.7,156.6v52.5M53.5,209H-1.7M53.5,209v52.5M53.5,209h55.2M-1.7,209v52.5M53.5,261.5H-1.7M53.5,261.5v52.5M53.5,261.5h55.2M-1.7,261.5v52.5M53.5,314H-1.7M53.5,314v52.5M53.5,314h55.2M-1.7,314v52.5M53.5,366.4H-1.7M53.5,366.4v52.5M53.5,366.4h55.2M-1.7,366.4v52.5M53.5,418.9H-1.7M53.5,418.9v52.5M53.5,418.9h55.2M-1.7,418.9v52.5M53.5,471.4H-1.7M53.5,471.4v52.5M53.5,471.4h55.2M-1.7,471.4v52.5M53.5,523.8H-1.7M53.5,523.8v52.5M53.5,523.8h55.2M-1.7,523.8v52.5M53.5,576.3H-1.7M53.5,576.3v52.5M53.5,576.3h55.2M-1.7,576.3v52.5M53.5,628.8H-1.7M53.5,628.8v52.5M53.5,628.8h55.2M-1.7,628.8v52.5M53.5,681.2H-1.7M53.5,681.2v52.5M53.5,681.2h55.2M-1.7,681.2v52.5M53.5,733.7H-1.7M53.5,733.7v52.5M53.5,733.7h55.2M-1.7,733.7v52.5M53.5,786.2H-1.7M53.5,786.2v52.5M53.5,786.2h55.2M-1.7,786.2v52.5M53.5,838.6H-1.7M53.5,838.6v52.5M53.5,838.6h55.2M-1.7,838.6v52.5h55.2M53.5,891.1h55.2M108.7-158.2v52.5M108.7-158.2h55.2M108.7-105.8v52.5M108.7-105.8h55.2M108.7-53.3V-.8M108.7-53.3h55.2M108.7-.8v52.5M108.7-.8h55.2M108.7,51.6v52.5M108.7,51.6h55.2M108.7,104.1v52.5M108.7,104.1h55.2M108.7,156.6v52.5M108.7,156.6h55.2M108.7,209v52.5M108.7,209h55.2M108.7,261.5v52.5M108.7,261.5h55.2M108.7,314v52.5M108.7,314h55.2M108.7,366.4v52.5M108.7,366.4h55.2M108.7,418.9v52.5M108.7,418.9h55.2M108.7,471.4v52.5M108.7,471.4h55.2M108.7,523.8v52.5M108.7,523.8h55.2M108.7,576.3v52.5M108.7,576.3h55.2M108.7,628.8v52.5M108.7,628.8h55.2M108.7,681.2v52.5M108.7,681.2h55.2M108.7,733.7v52.5M108.7,733.7h55.2M108.7,786.2v52.5M108.7,786.2h55.2M108.7,838.6v52.5M108.7,838.6h55.2M108.7,891.1h55.2M163.9-158.2v52.5M163.9-158.2h55.2M163.9-105.8v52.5M163.9-105.8h55.2M163.9-53.3V-.8M163.9-53.3h55.2M163.9-.8v52.5M163.9-.8h55.2M163.9,51.6v52.5M163.9,51.6h55.2M163.9,104.1v52.5M163.9,104.1h55.2M163.9,156.6v52.5M163.9,156.6h55.2M163.9,209v52.5M163.9,209h55.2M163.9,261.5v52.5M163.9,261.5h55.2M163.9,314v52.5M163.9,314h55.2M163.9,366.4v52.5M163.9,366.4h55.2M163.9,418.9v52.5M163.9,418.9h55.2M163.9,471.4v52.5M163.9,471.4h55.2M163.9,523.8v52.5M163.9,523.8h55.2M163.9,576.3v52.5M163.9,576.3h55.2M163.9,628.8v52.5M163.9,628.8h55.2M163.9,681.2v52.5M163.9,681.2h55.2M163.9,733.7v52.5M163.9,733.7h55.2M163.9,786.2v52.5M163.9,786.2h55.2M163.9,838.6v52.5M163.9,838.6h55.2M163.9,891.1h55.2M219.1-158.2v52.5M219.1-158.2h55.2M219.1-105.8v52.5M219.1-105.8h55.2M219.1-53.3V-.8M219.1-53.3h55.2M219.1-.8v52.5M219.1-.8h55.2M219.1,51.6v52.5M219.1,51.6h55.2M219.1,104.1v52.5M219.1,104.1h55.2M219.1,156.6v52.5M219.1,156.6h55.2M219.1,209v52.5M219.1,209h55.2M219.1,261.5v52.5M219.1,261.5h55.2M219.1,314v52.5M219.1,314h55.2M219.1,366.4v52.5M219.1,366.4h55.2M219.1,418.9v52.5M219.1,418.9h55.2M219.1,471.4v52.5M219.1,471.4h55.2M219.1,523.8v52.5M219.1,523.8h55.2M219.1,576.3v52.5M219.1,576.3h55.2M219.1,628.8v52.5M219.1,628.8h55.2M219.1,681.2v52.5M219.1,681.2h55.2M219.1,733.7v52.5M219.1,733.7h55.2M219.1,786.2v52.5M219.1,786.2h55.2M219.1,838.6v52.5M219.1,838.6h55.2M219.1,891.1h55.2M274.3-158.2v52.5M274.3-158.2h55.2M274.3-105.8v52.5M274.3-105.8h55.2M274.3-53.3V-.8M274.3-53.3h55.2M274.3-.8v52.5M274.3-.8h55.2M274.3,51.6v52.5M274.3,51.6h55.2M274.3,104.1v52.5M274.3,104.1h55.2M274.3,156.6v52.5M274.3,156.6h55.2M274.3,209v52.5M274.3,209h55.2M274.3,261.5v52.5M274.3,261.5h55.2M274.3,314v52.5M274.3,314h55.2M274.3,366.4v52.5M274.3,366.4h55.2M274.3,418.9v52.5M274.3,418.9h55.2M274.3,471.4v52.5M274.3,471.4h55.2M274.3,523.8v52.5M274.3,523.8h55.2M274.3,576.3v52.5M274.3,576.3h55.2M274.3,628.8v52.5M274.3,628.8h55.2M274.3,681.2v52.5M274.3,681.2h55.2M274.3,733.7v52.5M274.3,733.7h55.2M274.3,786.2v52.5M274.3,786.2h55.2M274.3,838.6v52.5M274.3,838.6h55.2M274.3,891.1h55.2M329.5-158.2v52.5M329.5-158.2h55.2M329.5-105.8v52.5M329.5-105.8h55.2M329.5-53.3V-.8M329.5-53.3h55.2M329.5-.8v52.5M329.5-.8h55.2M329.5,51.6v52.5M329.5,51.6h55.2M329.5,104.1v52.5M329.5,104.1h55.2M329.5,156.6v52.5M329.5,156.6h55.2M329.5,209v52.5M329.5,209h55.2M329.5,261.5v52.5M329.5,261.5h55.2M329.5,314v52.5M329.5,314h55.2M329.5,366.4v52.5M329.5,366.4h55.2M329.5,418.9v52.5M329.5,418.9h55.2M329.5,471.4v52.5M329.5,471.4h55.2M329.5,523.8v52.5M329.5,523.8h55.2M329.5,576.3v52.5M329.5,576.3h55.2M329.5,628.8v52.5M329.5,628.8h55.2M329.5,681.2v52.5M329.5,681.2h55.2M329.5,733.7v52.5M329.5,733.7h55.2M329.5,786.2v52.5M329.5,786.2h55.2M329.5,838.6v52.5M329.5,838.6h55.2M329.5,891.1h55.2M384.7-158.2v52.5M384.7-158.2h55.2M384.7-105.8v52.5M384.7-105.8h55.2M384.7-53.3V-.8M384.7-53.3h55.2M384.7-.8v52.5M384.7-.8h55.2M384.7,51.6v52.5M384.7,51.6h55.2M384.7,104.1v52.5M384.7,104.1h55.2M384.7,156.6v52.5M384.7,156.6h55.2M384.7,209v52.5M384.7,209h55.2M384.7,261.5v52.5M384.7,261.5h55.2M384.7,314v52.5M384.7,314h55.2M384.7,366.4v52.5M384.7,366.4h55.2M384.7,418.9v52.5M384.7,418.9h55.2M384.7,471.4v52.5M384.7,471.4h55.2M384.7,523.8v52.5M384.7,523.8h55.2M384.7,576.3v52.5M384.7,576.3h55.2M384.7,628.8v52.5M384.7,628.8h55.2M384.7,681.2v52.5M384.7,681.2h55.2M384.7,733.7v52.5M384.7,733.7h55.2M384.7,786.2v52.5M384.7,786.2h55.2M384.7,838.6v52.5M384.7,838.6h55.2M384.7,891.1h55.2M439.9-158.2v52.5M439.9-158.2h55.2M439.9-105.8v52.5M439.9-105.8h55.2M439.9-53.3V-.8M439.9-53.3h55.2M439.9-.8v52.5M439.9-.8h55.2M439.9,51.6v52.5M439.9,51.6h55.2M439.9,104.1v52.5M439.9,104.1h55.2M439.9,156.6v52.5M439.9,156.6h55.2M439.9,209v52.5M439.9,209h55.2M439.9,261.5v52.5M439.9,261.5h55.2M439.9,314v52.5M439.9,314h55.2M439.9,366.4v52.5M439.9,366.4h55.2M439.9,418.9v52.5M439.9,418.9h55.2M439.9,471.4v52.5M439.9,471.4h55.2M439.9,523.8v52.5M439.9,523.8h55.2M439.9,576.3v52.5M439.9,576.3h55.2M439.9,628.8v52.5M439.9,628.8h55.2M439.9,681.2v52.5M439.9,681.2h55.2M439.9,733.7v52.5M439.9,733.7h55.2M439.9,786.2v52.5M439.9,786.2h55.2M439.9,838.6v52.5M439.9,838.6h55.2M439.9,891.1h55.2M495-158.2v52.5M495-158.2h55.2M495-105.8v52.5M495-105.8h55.2M495-53.3V-.8M495-53.3h55.2M495-.8v52.5M495-.8h55.2M495,51.6v52.5M495,51.6h55.2M495,104.1v52.5M495,104.1h55.2M495,156.6v52.5M495,156.6h55.2M495,209v52.5M495,209h55.2M495,261.5v52.5M495,261.5h55.2M495,314v52.5M495,314h55.2M495,366.4v52.5M495,366.4h55.2M495,418.9v52.5M495,418.9h55.2M495,471.4v52.5M495,471.4h55.2M495,523.8v52.5M495,523.8h55.2M495,576.3v52.5M495,576.3h55.2M495,628.8v52.5M495,628.8h55.2M495,681.2v52.5M495,681.2h55.2M495,733.7v52.5M495,733.7h55.2M495,786.2v52.5M495,786.2h55.2M495,838.6v52.5M495,838.6h55.2M495,891.1h55.2M550.2-158.2v52.5M550.2-158.2h55.2M550.2-105.8v52.5M550.2-105.8h55.2M550.2-53.3V-.8M550.2-53.3h55.2M550.2-.8v52.5M550.2-.8h55.2M550.2,51.6v52.5M550.2,51.6h55.2M550.2,104.1v52.5M550.2,104.1h55.2M550.2,156.6v52.5M550.2,156.6h55.2M550.2,209v52.5M550.2,209h55.2M550.2,261.5v52.5M550.2,261.5h55.2M550.2,314v52.5M550.2,314h55.2M550.2,366.4v52.5M550.2,366.4h55.2M550.2,418.9v52.5M550.2,418.9h55.2M550.2,471.4v52.5M550.2,471.4h55.2M550.2,523.8v52.5M550.2,523.8h55.2M550.2,576.3v52.5M550.2,576.3h55.2M550.2,628.8v52.5M550.2,628.8h55.2M550.2,681.2v52.5M550.2,681.2h55.2M550.2,733.7v52.5M550.2,733.7h55.2M550.2,786.2v52.5M550.2,786.2h55.2M550.2,838.6v52.5M550.2,838.6h55.2M550.2,891.1h55.2M605.4-158.2v52.5M605.4-158.2h55.2M605.4-105.8v52.5M605.4-105.8h55.2M605.4-53.3V-.8M605.4-53.3h55.2M605.4-.8v52.5M605.4-.8h55.2M605.4,51.6v52.5M605.4,51.6h55.2M605.4,104.1v52.5M605.4,104.1h55.2M605.4,156.6v52.5M605.4,156.6h55.2M605.4,209v52.5M605.4,209h55.2M605.4,261.5v52.5M605.4,261.5h55.2M605.4,314v52.5M605.4,314h55.2M605.4,366.4v52.5M605.4,366.4h55.2M605.4,418.9v52.5M605.4,418.9h55.2M605.4,471.4v52.5M605.4,471.4h55.2M605.4,523.8v52.5M605.4,523.8h55.2M605.4,576.3v52.5M605.4,576.3h55.2M605.4,628.8v52.5M605.4,628.8h55.2M605.4,681.2v52.5M605.4,681.2h55.2M605.4,733.7v52.5M605.4,733.7h55.2M605.4,786.2v52.5M605.4,786.2h55.2M605.4,838.6v52.5M605.4,838.6h55.2M605.4,891.1h55.2M660.6-158.2v52.5M660.6-158.2h55.2M660.6-105.8v52.5M660.6-105.8h55.2M660.6-53.3V-.8M660.6-53.3h55.2M660.6-.8v52.5M660.6-.8h55.2M660.6,51.6v52.5M660.6,51.6h55.2M660.6,104.1v52.5M660.6,104.1h55.2M660.6,156.6v52.5M660.6,156.6h55.2M660.6,209v52.5M660.6,209h55.2M660.6,261.5v52.5M660.6,261.5h55.2M660.6,314v52.5M660.6,314h55.2M660.6,366.4v52.5M660.6,366.4h55.2M660.6,418.9v52.5M660.6,418.9h55.2M660.6,471.4v52.5M660.6,471.4h55.2M660.6,523.8v52.5M660.6,523.8h55.2M660.6,576.3v52.5M660.6,576.3h55.2M660.6,628.8v52.5M660.6,628.8h55.2M660.6,681.2v52.5M660.6,681.2h55.2M660.6,733.7v52.5M660.6,733.7h55.2M660.6,786.2v52.5M660.6,786.2h55.2M660.6,838.6v52.5M660.6,838.6h55.2M660.6,891.1h55.2M715.8-158.2v52.5M715.8-158.2h55.2M715.8-105.8v52.5M715.8-105.8h55.2M715.8-53.3V-.8M715.8-53.3h55.2M715.8-.8v52.5M715.8-.8h55.2M715.8,51.6v52.5M715.8,51.6h55.2M715.8,104.1v52.5M715.8,104.1h55.2M715.8,156.6v52.5M715.8,156.6h55.2M715.8,209v52.5M715.8,209h55.2M715.8,261.5v52.5M715.8,261.5h55.2M715.8,314v52.5M715.8,314h55.2M715.8,366.4v52.5M715.8,366.4h55.2M715.8,418.9v52.5M715.8,418.9h55.2M715.8,471.4v52.5M715.8,471.4h55.2M715.8,523.8v52.5M715.8,523.8h55.2M715.8,576.3v52.5M715.8,576.3h55.2M715.8,628.8v52.5M715.8,628.8h55.2M715.8,681.2v52.5M715.8,681.2h55.2M715.8,733.7v52.5M715.8,733.7h55.2M715.8,786.2v52.5M715.8,786.2h55.2M715.8,838.6v52.5M715.8,838.6h55.2M715.8,891.1h55.2M771-158.2v52.5M771-158.2h55.2M771-105.8v52.5M771-105.8h55.2M771-53.3V-.8M771-53.3h55.2M771-.8v52.5M771-.8h55.2M771,51.6v52.5M771,51.6h55.2M771,104.1v52.5M771,104.1h55.2M771,156.6v52.5M771,156.6h55.2M771,209v52.5M771,209h55.2M771,261.5v52.5M771,261.5h55.2M771,314v52.5M771,314h55.2M771,366.4v52.5M771,366.4h55.2M771,418.9v52.5M771,418.9h55.2M771,471.4v52.5M771,471.4h55.2M771,523.8v52.5M771,523.8h55.2M771,576.3v52.5M771,576.3h55.2M771,628.8v52.5M771,628.8h55.2M771,681.2v52.5M771,681.2h55.2M771,733.7v52.5M771,733.7h55.2M771,786.2v52.5M771,786.2h55.2M771,838.6v52.5M771,838.6h55.2M771,891.1h55.2M826.2-158.2v52.5M826.2-158.2h55.2M826.2-105.8v52.5M826.2-105.8h55.2M826.2-53.3V-.8M826.2-53.3h55.2M826.2-.8v52.5M826.2-.8h55.2M826.2,51.6v52.5M826.2,51.6h55.2M826.2,104.1v52.5M826.2,104.1h55.2M826.2,156.6v52.5M826.2,156.6h55.2M826.2,209v52.5M826.2,209h55.2M826.2,261.5v52.5M826.2,261.5h55.2M826.2,314v52.5M826.2,314h55.2M826.2,366.4v52.5M826.2,366.4h55.2M826.2,418.9v52.5M826.2,418.9h55.2M826.2,471.4v52.5M826.2,471.4h55.2M826.2,523.8v52.5M826.2,523.8h55.2M826.2,576.3v52.5M826.2,576.3h55.2M826.2,628.8v52.5M826.2,628.8h55.2M826.2,681.2v52.5M826.2,681.2h55.2M826.2,733.7v52.5M826.2,733.7h55.2M826.2,786.2v52.5M826.2,786.2h55.2M826.2,838.6v52.5M826.2,838.6h55.2M826.2,891.1h55.2M881.4-158.2v52.5M881.4-158.2h55.2M881.4-105.8v52.5M881.4-105.8h55.2M881.4-53.3V-.8M881.4-53.3h55.2M881.4-.8v52.5M881.4-.8h55.2M881.4,51.6v52.5M881.4,51.6h55.2M881.4,104.1v52.5M881.4,104.1h55.2M881.4,156.6v52.5M881.4,156.6h55.2M881.4,209v52.5M881.4,209h55.2M881.4,261.5v52.5M881.4,261.5h55.2M881.4,314v52.5M881.4,314h55.2M881.4,366.4v52.5M881.4,366.4h55.2M881.4,418.9v52.5M881.4,418.9h55.2M881.4,471.4v52.5M881.4,471.4h55.2M881.4,523.8v52.5M881.4,523.8h55.2M881.4,576.3v52.5M881.4,576.3h55.2M881.4,628.8v52.5M881.4,628.8h55.2M881.4,681.2v52.5M881.4,681.2h55.2M881.4,733.7v52.5M881.4,733.7h55.2M881.4,786.2v52.5M881.4,786.2h55.2M881.4,838.6v52.5M881.4,838.6h55.2M881.4,891.1h55.2M936.6-158.2v52.5M936.6-158.2h55.2M936.6-105.8v52.5M936.6-105.8h55.2M936.6-53.3V-.8M936.6-53.3h55.2M936.6-.8v52.5M936.6-.8h55.2M936.6,51.6v52.5M936.6,51.6h55.2M936.6,104.1v52.5M936.6,104.1h55.2M936.6,156.6v52.5M936.6,156.6h55.2M936.6,209v52.5M936.6,209h55.2M936.6,261.5v52.5M936.6,261.5h55.2M936.6,314v52.5M936.6,314h55.2M936.6,366.4v52.5M936.6,366.4h55.2M936.6,418.9v52.5M936.6,418.9h55.2M936.6,471.4v52.5M936.6,471.4h55.2M936.6,523.8v52.5M936.6,523.8h55.2M936.6,576.3v52.5M936.6,576.3h55.2M936.6,628.8v52.5M936.6,628.8h55.2M936.6,681.2v52.5M936.6,681.2h55.2M936.6,733.7v52.5M936.6,733.7h55.2M936.6,786.2v52.5M936.6,786.2h55.2M936.6,838.6v52.5M936.6,838.6h55.2M936.6,891.1h55.2M991.8-158.2v52.5M991.8-158.2h55.2M991.8-105.8v52.5M991.8-105.8h55.2M991.8-53.3V-.8M991.8-53.3h55.2M991.8-.8v52.5M991.8-.8h55.2M991.8,51.6v52.5M991.8,51.6h55.2M991.8,104.1v52.5M991.8,104.1h55.2M991.8,156.6v52.5M991.8,156.6h55.2M991.8,209v52.5M991.8,209h55.2M991.8,261.5v52.5M991.8,261.5h55.2M991.8,314v52.5M991.8,314h55.2M991.8,366.4v52.5M991.8,366.4h55.2M991.8,418.9v52.5M991.8,418.9h55.2M991.8,471.4v52.5M991.8,471.4h55.2M991.8,523.8v52.5M991.8,523.8h55.2M991.8,576.3v52.5M991.8,576.3h55.2M991.8,628.8v52.5M991.8,628.8h55.2M991.8,681.2v52.5M991.8,681.2h55.2M991.8,733.7v52.5M991.8,733.7h55.2M991.8,786.2v52.5M991.8,786.2h55.2M991.8,838.6v52.5M991.8,838.6h55.2M991.8,891.1h55.2M1047-158.2v52.5M1047-158.2h55.2M1047-105.8v52.5M1047-105.8h55.2M1047-53.3V-.8M1047-53.3h55.2M1047-.8v52.5M1047-.8h55.2M1047,51.6v52.5M1047,51.6h55.2M1047,104.1v52.5M1047,104.1h55.2M1047,156.6v52.5M1047,156.6h55.2M1047,209v52.5M1047,209h55.2M1047,261.5v52.5M1047,261.5h55.2M1047,314v52.5M1047,314h55.2M1047,366.4v52.5M1047,366.4h55.2M1047,418.9v52.5M1047,418.9h55.2M1047,471.4v52.5M1047,471.4h55.2M1047,523.8v52.5M1047,523.8h55.2M1047,576.3v52.5M1047,576.3h55.2M1047,628.8v52.5M1047,628.8h55.2M1047,681.2v52.5M1047,681.2h55.2M1047,733.7v52.5M1047,733.7h55.2M1047,786.2v52.5M1047,786.2h55.2M1047,838.6v52.5M1047,838.6h55.2M1047,891.1h55.2M1102.2-158.2v52.5M1102.2-158.2h55.2M1102.2-105.8v52.5M1102.2-105.8h55.2M1102.2-53.3V-.8M1102.2-53.3h55.2M1102.2-.8v52.5M1102.2-.8h55.2M1102.2,51.6v52.5M1102.2,51.6h55.2M1102.2,104.1v52.5M1102.2,104.1h55.2M1102.2,156.6v52.5M1102.2,156.6h55.2M1102.2,209v52.5M1102.2,209h55.2M1102.2,261.5v52.5M1102.2,261.5h55.2M1102.2,314v52.5M1102.2,314h55.2M1102.2,366.4v52.5M1102.2,366.4h55.2M1102.2,418.9v52.5M1102.2,418.9h55.2M1102.2,471.4v52.5M1102.2,471.4h55.2M1102.2,523.8v52.5M1102.2,523.8h55.2M1102.2,576.3v52.5M1102.2,576.3h55.2M1102.2,628.8v52.5M1102.2,628.8h55.2M1102.2,681.2v52.5M1102.2,681.2h55.2M1102.2,733.7v52.5M1102.2,733.7h55.2M1102.2,786.2v52.5M1102.2,786.2h55.2M1102.2,838.6v52.5M1102.2,838.6h55.2M1102.2,891.1h55.2M1157.3-158.2v52.5M1157.3-158.2h55.2M1157.3-105.8v52.5M1157.3-105.8h55.2M1157.3-53.3V-.8M1157.3-53.3h55.2M1157.3-.8v52.5M1157.3-.8h55.2M1157.3,51.6v52.5M1157.3,51.6h55.2M1157.3,104.1v52.5M1157.3,104.1h55.2M1157.3,156.6v52.5M1157.3,156.6h55.2M1157.3,209v52.5M1157.3,209h55.2M1157.3,261.5v52.5M1157.3,261.5h55.2M1157.3,314v52.5M1157.3,314h55.2M1157.3,366.4v52.5M1157.3,366.4h55.2M1157.3,418.9v52.5M1157.3,418.9h55.2M1157.3,471.4v52.5M1157.3,471.4h55.2M1157.3,523.8v52.5M1157.3,523.8h55.2M1157.3,576.3v52.5M1157.3,576.3h55.2M1157.3,628.8v52.5M1157.3,628.8h55.2M1157.3,681.2v52.5M1157.3,681.2h55.2M1157.3,733.7v52.5M1157.3,733.7h55.2M1157.3,786.2v52.5M1157.3,786.2h55.2M1157.3,838.6v52.5M1157.3,838.6h55.2M1157.3,891.1h55.2M1212.5-158.2v52.5M1212.5-158.2h55.2M1212.5-105.8v52.5M1212.5-105.8h55.2M1212.5-53.3V-.8M1212.5-53.3h55.2M1212.5-.8v52.5M1212.5-.8h55.2M1212.5,51.6v52.5M1212.5,51.6h55.2M1212.5,104.1v52.5M1212.5,104.1h55.2M1212.5,156.6v52.5M1212.5,156.6h55.2M1212.5,209v52.5M1212.5,209h55.2M1212.5,261.5v52.5M1212.5,261.5h55.2M1212.5,314v52.5M1212.5,314h55.2M1212.5,366.4v52.5M1212.5,366.4h55.2M1212.5,418.9v52.5M1212.5,418.9h55.2M1212.5,471.4v52.5M1212.5,471.4h55.2M1212.5,523.8v52.5M1212.5,523.8h55.2M1212.5,576.3v52.5M1212.5,576.3h55.2M1212.5,628.8v52.5M1212.5,628.8h55.2M1212.5,681.2v52.5M1212.5,681.2h55.2M1212.5,733.7v52.5M1212.5,733.7h55.2M1212.5,786.2v52.5M1212.5,786.2h55.2M1212.5,838.6v52.5M1212.5,838.6h55.2M1212.5,891.1h55.2M1267.7-158.2v52.5M1267.7-158.2h55.2M1267.7-105.8v52.5M1267.7-105.8h55.2M1267.7-53.3V-.8M1267.7-53.3h55.2M1267.7-.8v52.5M1267.7-.8h55.2M1267.7,51.6v52.5M1267.7,51.6h55.2M1267.7,104.1v52.5M1267.7,104.1h55.2M1267.7,156.6v52.5M1267.7,156.6h55.2M1267.7,209v52.5M1267.7,209h55.2M1267.7,261.5v52.5M1267.7,261.5h55.2M1267.7,314v52.5M1267.7,314h55.2M1267.7,366.4v52.5M1267.7,366.4h55.2M1267.7,418.9v52.5M1267.7,418.9h55.2M1267.7,471.4v52.5M1267.7,471.4h55.2M1267.7,523.8v52.5M1267.7,523.8h55.2M1267.7,576.3v52.5M1267.7,576.3h55.2M1267.7,628.8v52.5M1267.7,628.8h55.2M1267.7,681.2v52.5M1267.7,681.2h55.2M1267.7,733.7v52.5M1267.7,733.7h55.2M1267.7,786.2v52.5M1267.7,786.2h55.2M1267.7,838.6v52.5M1267.7,838.6h55.2M1267.7,891.1h55.2M1322.9-158.2v52.5M1322.9-158.2h55.2M1322.9-105.8v52.5M1322.9-105.8h55.2M1322.9-53.3V-.8M1322.9-53.3h55.2M1322.9-.8v52.5M1322.9-.8h55.2M1322.9,51.6v52.5M1322.9,51.6h55.2M1322.9,104.1v52.5M1322.9,104.1h55.2M1322.9,156.6v52.5M1322.9,156.6h55.2M1322.9,209v52.5M1322.9,209h55.2M1322.9,261.5v52.5M1322.9,261.5h55.2M1322.9,314v52.5M1322.9,314h55.2M1322.9,366.4v52.5M1322.9,366.4h55.2M1322.9,418.9v52.5M1322.9,418.9h55.2M1322.9,471.4v52.5M1322.9,471.4h55.2M1322.9,523.8v52.5M1322.9,523.8h55.2M1322.9,576.3v52.5M1322.9,576.3h55.2M1322.9,628.8v52.5M1322.9,628.8h55.2M1322.9,681.2v52.5M1322.9,681.2h55.2M1322.9,733.7v52.5M1322.9,733.7h55.2M1322.9,786.2v52.5M1322.9,786.2h55.2M1322.9,838.6v52.5M1322.9,838.6h55.2M1322.9,891.1h55.2M1378.1-158.2v52.5M1378.1-158.2h55.2M1378.1-105.8v52.5M1378.1-105.8h55.2M1378.1-53.3V-.8M1378.1-53.3h55.2M1378.1-.8v52.5M1378.1-.8h55.2M1378.1,51.6v52.5M1378.1,51.6h55.2M1378.1,104.1v52.5M1378.1,104.1h55.2M1378.1,156.6v52.5M1378.1,156.6h55.2M1378.1,209v52.5M1378.1,209h55.2M1378.1,261.5v52.5M1378.1,261.5h55.2M1378.1,314v52.5M1378.1,314h55.2M1378.1,366.4v52.5M1378.1,366.4h55.2M1378.1,418.9v52.5M1378.1,418.9h55.2M1378.1,471.4v52.5M1378.1,471.4h55.2M1378.1,523.8v52.5M1378.1,523.8h55.2M1378.1,576.3v52.5M1378.1,576.3h55.2M1378.1,628.8v52.5M1378.1,628.8h55.2M1378.1,681.2v52.5M1378.1,681.2h55.2M1378.1,733.7v52.5M1378.1,733.7h55.2M1378.1,786.2v52.5M1378.1,786.2h55.2M1378.1,838.6v52.5M1378.1,838.6h55.2M1378.1,891.1h55.2M1433.3-158.2v52.5M1433.3-158.2h55.2M1433.3-105.8v52.5M1433.3-105.8h55.2M1433.3-53.3V-.8M1433.3-53.3h55.2M1433.3-.8v52.5M1433.3-.8h55.2M1433.3,51.6v52.5M1433.3,51.6h55.2M1433.3,104.1v52.5M1433.3,104.1h55.2M1433.3,156.6v52.5M1433.3,156.6h55.2M1433.3,209v52.5M1433.3,209h55.2M1433.3,261.5v52.5M1433.3,261.5h55.2M1433.3,314v52.5M1433.3,314h55.2M1433.3,366.4v52.5M1433.3,366.4h55.2M1433.3,418.9v52.5M1433.3,418.9h55.2M1433.3,471.4v52.5M1433.3,471.4h55.2M1433.3,523.8v52.5M1433.3,523.8h55.2M1433.3,576.3v52.5M1433.3,576.3h55.2M1433.3,628.8v52.5M1433.3,628.8h55.2M1433.3,681.2v52.5M1433.3,681.2h55.2M1433.3,733.7v52.5M1433.3,733.7h55.2M1433.3,786.2v52.5M1433.3,786.2h55.2M1433.3,838.6v52.5M1433.3,838.6h55.2M1433.3,891.1h55.2M1488.5-158.2v52.5M1488.5-158.2h55.2M1488.5-105.8v52.5M1488.5-105.8h55.2M1488.5-53.3V-.8M1488.5-53.3h55.2M1488.5-.8v52.5M1488.5-.8h55.2M1488.5,51.6v52.5M1488.5,51.6h55.2M1488.5,104.1v52.5M1488.5,104.1h55.2M1488.5,156.6v52.5M1488.5,156.6h55.2M1488.5,209v52.5M1488.5,209h55.2M1488.5,261.5v52.5M1488.5,261.5h55.2M1488.5,314v52.5M1488.5,314h55.2M1488.5,366.4v52.5M1488.5,366.4h55.2M1488.5,418.9v52.5M1488.5,418.9h55.2M1488.5,471.4v52.5M1488.5,471.4h55.2M1488.5,523.8v52.5M1488.5,523.8h55.2M1488.5,576.3v52.5M1488.5,576.3h55.2M1488.5,628.8v52.5M1488.5,628.8h55.2M1488.5,681.2v52.5M1488.5,681.2h55.2M1488.5,733.7v52.5M1488.5,733.7h55.2M1488.5,786.2v52.5M1488.5,786.2h55.2M1488.5,838.6v52.5M1488.5,838.6h55.2M1488.5,891.1h55.2M1543.7-158.2v52.5M1543.7-158.2h55.2M1543.7-105.8v52.5M1543.7-105.8h55.2M1543.7-53.3V-.8M1543.7-53.3h55.2M1543.7-.8v52.5M1543.7-.8h55.2M1543.7,51.6v52.5M1543.7,51.6h55.2M1543.7,104.1v52.5M1543.7,104.1h55.2M1543.7,156.6v52.5M1543.7,156.6h55.2M1543.7,209v52.5M1543.7,209h55.2M1543.7,261.5v52.5M1543.7,261.5h55.2M1543.7,314v52.5M1543.7,314h55.2M1543.7,366.4v52.5M1543.7,366.4h55.2M1543.7,418.9v52.5M1543.7,418.9h55.2M1543.7,471.4v52.5M1543.7,471.4h55.2M1543.7,523.8v52.5M1543.7,523.8h55.2M1543.7,576.3v52.5M1543.7,576.3h55.2M1543.7,628.8v52.5M1543.7,628.8h55.2M1543.7,681.2v52.5M1543.7,681.2h55.2M1543.7,733.7v52.5M1543.7,733.7h55.2M1543.7,786.2v52.5M1543.7,786.2h55.2M1543.7,838.6v52.5M1543.7,838.6h55.2M1543.7,891.1h55.2M1598.9-158.2v52.5M1598.9-158.2h55.2M1598.9-105.8v52.5M1598.9-105.8h55.2M1598.9-53.3V-.8M1598.9-53.3h55.2M1598.9-.8v52.5M1598.9-.8h55.2M1598.9,51.6v52.5M1598.9,51.6h55.2M1598.9,104.1v52.5M1598.9,104.1h55.2M1598.9,156.6v52.5M1598.9,156.6h55.2M1598.9,209v52.5M1598.9,209h55.2M1598.9,261.5v52.5M1598.9,261.5h55.2M1598.9,314v52.5M1598.9,314h55.2M1598.9,366.4v52.5M1598.9,366.4h55.2M1598.9,418.9v52.5M1598.9,418.9h55.2M1598.9,471.4v52.5M1598.9,471.4h55.2M1598.9,523.8v52.5M1598.9,523.8h55.2M1598.9,576.3v52.5M1598.9,576.3h55.2M1598.9,628.8v52.5M1598.9,628.8h55.2M1598.9,681.2v52.5M1598.9,681.2h55.2M1598.9,733.7v52.5M1598.9,733.7h55.2M1598.9,786.2v52.5M1598.9,786.2h55.2M1598.9,838.6v52.5M1598.9,838.6h55.2M1598.9,891.1h55.2M1654.1-158.2v52.5M1654.1-158.2h55.2M1654.1-105.8v52.5M1654.1-105.8h55.2M1654.1-53.3V-.8M1654.1-53.3h55.2M1654.1-.8v52.5M1654.1-.8h55.2M1654.1,51.6v52.5M1654.1,51.6h55.2M1654.1,104.1v52.5M1654.1,104.1h55.2M1654.1,156.6v52.5M1654.1,156.6h55.2M1654.1,209v52.5M1654.1,209h55.2M1654.1,261.5v52.5M1654.1,261.5h55.2M1654.1,314v52.5M1654.1,314h55.2M1654.1,366.4v52.5M1654.1,366.4h55.2M1654.1,418.9v52.5M1654.1,418.9h55.2M1654.1,471.4v52.5M1654.1,471.4h55.2M1654.1,523.8v52.5M1654.1,523.8h55.2M1654.1,576.3v52.5M1654.1,576.3h55.2M1654.1,628.8v52.5M1654.1,628.8h55.2M1654.1,681.2v52.5M1654.1,681.2h55.2M1654.1,733.7v52.5M1654.1,733.7h55.2M1654.1,786.2v52.5M1654.1,786.2h55.2M1654.1,838.6v52.5M1654.1,838.6h55.2M1654.1,891.1h55.2M1709.3-158.2v52.5M1709.3-158.2h55.2M1709.3-105.8v52.5M1709.3-105.8h55.2M1709.3-53.3V-.8M1709.3-53.3h55.2M1709.3-.8v52.5M1709.3-.8h55.2M1709.3,51.6v52.5M1709.3,51.6h55.2M1709.3,104.1v52.5M1709.3,104.1h55.2M1709.3,156.6v52.5M1709.3,156.6h55.2M1709.3,209v52.5M1709.3,209h55.2M1709.3,261.5v52.5M1709.3,261.5h55.2M1709.3,314v52.5M1709.3,314h55.2M1709.3,366.4v52.5M1709.3,366.4h55.2M1709.3,418.9v52.5M1709.3,418.9h55.2M1709.3,471.4v52.5M1709.3,471.4h55.2M1709.3,523.8v52.5M1709.3,523.8h55.2M1709.3,576.3v52.5M1709.3,576.3h55.2M1709.3,628.8v52.5M1709.3,628.8h55.2M1709.3,681.2v52.5M1709.3,681.2h55.2M1709.3,733.7v52.5M1709.3,733.7h55.2M1709.3,786.2v52.5M1709.3,786.2h55.2M1709.3,838.6v52.5M1709.3,838.6h55.2M1709.3,891.1h55.2M1764.5-158.2v52.5M1764.5-158.2h55.2M1764.5-105.8v52.5M1764.5-105.8h55.2M1764.5-53.3V-.8M1764.5-53.3h55.2M1764.5-.8v52.5M1764.5-.8h55.2M1764.5,51.6v52.5M1764.5,51.6h55.2M1764.5,104.1v52.5M1764.5,104.1h55.2M1764.5,156.6v52.5M1764.5,156.6h55.2M1764.5,209v52.5M1764.5,209h55.2M1764.5,261.5v52.5M1764.5,261.5h55.2M1764.5,314v52.5M1764.5,314h55.2M1764.5,366.4v52.5M1764.5,366.4h55.2M1764.5,418.9v52.5M1764.5,418.9h55.2M1764.5,471.4v52.5M1764.5,471.4h55.2M1764.5,523.8v52.5M1764.5,523.8h55.2M1764.5,576.3v52.5M1764.5,576.3h55.2M1764.5,628.8v52.5M1764.5,628.8h55.2M1764.5,681.2v52.5M1764.5,681.2h55.2M1764.5,733.7v52.5M1764.5,733.7h55.2M1764.5,786.2v52.5M1764.5,786.2h55.2M1764.5,838.6v52.5M1764.5,838.6h55.2M1764.5,891.1h55.2M1819.7-158.2v52.5M1819.7-158.2h55.2M1819.7-105.8v52.5M1819.7-105.8h55.2M1819.7-53.3V-.8M1819.7-53.3h55.2M1819.7-.8v52.5M1819.7-.8h55.2M1819.7,51.6v52.5M1819.7,51.6h55.2M1819.7,104.1v52.5M1819.7,104.1h55.2M1819.7,156.6v52.5M1819.7,156.6h55.2M1819.7,209v52.5M1819.7,209h55.2M1819.7,261.5v52.5M1819.7,261.5h55.2M1819.7,314v52.5M1819.7,314h55.2M1819.7,366.4v52.5M1819.7,366.4h55.2M1819.7,418.9v52.5M1819.7,418.9h55.2M1819.7,471.4v52.5M1819.7,471.4h55.2M1819.7,523.8v52.5M1819.7,523.8h55.2M1819.7,576.3v52.5M1819.7,576.3h55.2M1819.7,628.8v52.5M1819.7,628.8h55.2M1819.7,681.2v52.5M1819.7,681.2h55.2M1819.7,733.7v52.5M1819.7,733.7h55.2M1819.7,786.2v52.5M1819.7,786.2h55.2M1819.7,838.6v52.5M1819.7,838.6h55.2M1819.7,891.1h55.2M1874.8-158.2v52.5M1874.8-158.2h55.2M1874.8-105.8v52.5M1874.8-105.8h55.2M1874.8-53.3V-.8M1874.8-53.3h55.2M1874.8-.8v52.5M1874.8-.8h55.2M1874.8,51.6v52.5M1874.8,51.6h55.2M1874.8,104.1v52.5M1874.8,104.1h55.2M1874.8,156.6v52.5M1874.8,156.6h55.2M1874.8,209v52.5M1874.8,209h55.2M1874.8,261.5v52.5M1874.8,261.5h55.2M1874.8,314v52.5M1874.8,314h55.2M1874.8,366.4v52.5M1874.8,366.4h55.2M1874.8,418.9v52.5M1874.8,418.9h55.2M1874.8,471.4v52.5M1874.8,471.4h55.2M1874.8,523.8v52.5M1874.8,523.8h55.2M1874.8,576.3v52.5M1874.8,576.3h55.2M1874.8,628.8v52.5M1874.8,628.8h55.2M1874.8,681.2v52.5M1874.8,681.2h55.2M1874.8,733.7v52.5M1874.8,733.7h55.2M1874.8,786.2v52.5M1874.8,786.2h55.2M1874.8,838.6v52.5M1874.8,838.6h55.2M1874.8,891.1h55.2M1930-158.2v52.5M1930-158.2h55.2M1930-105.8v52.5M1930-105.8h55.2M1930-53.3V-.8M1930-53.3h55.2M1930-.8v52.5M1930-.8h55.2M1930,51.6v52.5M1930,51.6h55.2M1930,104.1v52.5M1930,104.1h55.2M1930,156.6v52.5M1930,156.6h55.2M1930,209v52.5M1930,209h55.2M1930,261.5v52.5M1930,261.5h55.2M1930,314v52.5M1930,314h55.2M1930,366.4v52.5M1930,366.4h55.2M1930,418.9v52.5M1930,418.9h55.2M1930,471.4v52.5M1930,471.4h55.2M1930,523.8v52.5M1930,523.8h55.2M1930,576.3v52.5M1930,576.3h55.2M1930,628.8v52.5M1930,628.8h55.2M1930,681.2v52.5M1930,681.2h55.2M1930,733.7v52.5M1930,733.7h55.2M1930,786.2v52.5M1930,786.2h55.2M1930,838.6v52.5M1930,838.6h55.2M1930,891.1h55.2M1985.2-158.2v52.5M1985.2-158.2h55.2M1985.2-105.8v52.5M1985.2-105.8h55.2M1985.2-53.3V-.8M1985.2-53.3h55.2M1985.2-.8v52.5M1985.2-.8h55.2M1985.2,51.6v52.5M1985.2,51.6h55.2M1985.2,104.1v52.5M1985.2,104.1h55.2M1985.2,156.6v52.5M1985.2,156.6h55.2M1985.2,209v52.5M1985.2,209h55.2M1985.2,261.5v52.5M1985.2,261.5h55.2M1985.2,314v52.5M1985.2,314h55.2M1985.2,366.4v52.5M1985.2,366.4h55.2M1985.2,418.9v52.5M1985.2,418.9h55.2M1985.2,471.4v52.5M1985.2,471.4h55.2M1985.2,523.8v52.5M1985.2,523.8h55.2M1985.2,576.3v52.5M1985.2,576.3h55.2M1985.2,628.8v52.5M1985.2,628.8h55.2M1985.2,681.2v52.5M1985.2,681.2h55.2M1985.2,733.7v52.5M1985.2,733.7h55.2M1985.2,786.2v52.5M1985.2,786.2h55.2M1985.2,838.6v52.5M1985.2,838.6h55.2M1985.2,891.1h55.2M2040.4-158.2v52.5M2040.4-158.2h55.2M2040.4-105.8v52.5M2040.4-105.8h55.2M2040.4-53.3V-.8M2040.4-53.3h55.2M2040.4-.8v52.5M2040.4-.8h55.2M2040.4,51.6v52.5M2040.4,51.6h55.2M2040.4,104.1v52.5M2040.4,104.1h55.2M2040.4,156.6v52.5M2040.4,156.6h55.2M2040.4,209v52.5M2040.4,209h55.2M2040.4,261.5v52.5M2040.4,261.5h55.2M2040.4,314v52.5M2040.4,314h55.2M2040.4,366.4v52.5M2040.4,366.4h55.2M2040.4,418.9v52.5M2040.4,418.9h55.2M2040.4,471.4v52.5M2040.4,471.4h55.2M2040.4,523.8v52.5M2040.4,523.8h55.2M2040.4,576.3v52.5M2040.4,576.3h55.2M2040.4,628.8v52.5M2040.4,628.8h55.2M2040.4,681.2v52.5M2040.4,681.2h55.2M2040.4,733.7v52.5M2040.4,733.7h55.2M2040.4,786.2v52.5M2040.4,786.2h55.2M2040.4,838.6v52.5M2040.4,838.6h55.2M2040.4,891.1h55.2M2095.6-158.2v52.5M2095.6-158.2h55.2M2095.6-105.8v52.5M2095.6-105.8h55.2M2095.6-53.3V-.8M2095.6-53.3h55.2M2095.6-.8v52.5M2095.6-.8h55.2M2095.6,51.6v52.5M2095.6,51.6h55.2M2095.6,104.1v52.5M2095.6,104.1h55.2M2095.6,156.6v52.5M2095.6,156.6h55.2M2095.6,209v52.5M2095.6,209h55.2M2095.6,261.5v52.5M2095.6,261.5h55.2M2095.6,314v52.5M2095.6,314h55.2M2095.6,366.4v52.5M2095.6,366.4h55.2M2095.6,418.9v52.5M2095.6,418.9h55.2M2095.6,471.4v52.5M2095.6,471.4h55.2M2095.6,523.8v52.5M2095.6,523.8h55.2M2095.6,576.3v52.5M2095.6,576.3h55.2M2095.6,628.8v52.5M2095.6,628.8h55.2M2095.6,681.2v52.5M2095.6,681.2h55.2M2095.6,733.7v52.5M2095.6,733.7h55.2M2095.6,786.2v52.5M2095.6,786.2h55.2M2095.6,838.6v52.5M2095.6,838.6h55.2M2095.6,891.1h55.2M2150.8-158.2v52.5M2150.8-158.2h55.2M2150.8-105.8v52.5M2150.8-105.8h55.2M2150.8-53.3V-.8M2150.8-53.3h55.2M2150.8-.8v52.5M2150.8-.8h55.2M2150.8,51.6v52.5M2150.8,51.6h55.2M2150.8,104.1v52.5M2150.8,104.1h55.2M2150.8,156.6v52.5M2150.8,156.6h55.2M2150.8,209v52.5M2150.8,209h55.2M2150.8,261.5v52.5M2150.8,261.5h55.2M2150.8,314v52.5M2150.8,314h55.2M2150.8,366.4v52.5M2150.8,366.4h55.2M2150.8,418.9v52.5M2150.8,418.9h55.2M2150.8,471.4v52.5M2150.8,471.4h55.2M2150.8,523.8v52.5M2150.8,523.8h55.2M2150.8,576.3v52.5M2150.8,576.3h55.2M2150.8,628.8v52.5M2150.8,628.8h55.2M2150.8,681.2v52.5M2150.8,681.2h55.2M2150.8,733.7v52.5M2150.8,733.7h55.2M2150.8,786.2v52.5M2150.8,786.2h55.2M2150.8,838.6v52.5M2150.8,838.6h55.2M2150.8,891.1h55.2M2206-158.2v52.5M2206-158.2h55.2M2206-105.8v52.5M2206-105.8h55.2M2206-53.3V-.8M2206-53.3h55.2M2206-.8v52.5M2206-.8h55.2M2206,51.6v52.5M2206,51.6h55.2M2206,104.1v52.5M2206,104.1h55.2M2206,156.6v52.5M2206,156.6h55.2M2206,209v52.5M2206,209h55.2M2206,261.5v52.5M2206,261.5h55.2M2206,314v52.5M2206,314h55.2M2206,366.4v52.5M2206,366.4h55.2M2206,418.9v52.5M2206,418.9h55.2M2206,471.4v52.5M2206,471.4h55.2M2206,523.8v52.5M2206,523.8h55.2M2206,576.3v52.5M2206,576.3h55.2M2206,628.8v52.5M2206,628.8h55.2M2206,681.2v52.5M2206,681.2h55.2M2206,733.7v52.5M2206,733.7h55.2M2206,786.2v52.5M2206,786.2h55.2M2206,838.6v52.5M2206,838.6h55.2M2206,891.1h55.2M2261.2-158.2v52.5M2261.2-158.2h55.2M2261.2-105.8v52.5M2261.2-105.8h55.2M2261.2-53.3V-.8M2261.2-53.3h55.2M2261.2-.8v52.5M2261.2-.8h55.2M2261.2,51.6v52.5M2261.2,51.6h55.2M2261.2,104.1v52.5M2261.2,104.1h55.2M2261.2,156.6v52.5M2261.2,156.6h55.2M2261.2,209v52.5M2261.2,209h55.2M2261.2,261.5v52.5M2261.2,261.5h55.2M2261.2,314v52.5M2261.2,314h55.2M2261.2,366.4v52.5M2261.2,366.4h55.2M2261.2,418.9v52.5M2261.2,418.9h55.2M2261.2,471.4v52.5M2261.2,471.4h55.2M2261.2,523.8v52.5M2261.2,523.8h55.2M2261.2,576.3v52.5M2261.2,576.3h55.2M2261.2,628.8v52.5M2261.2,628.8h55.2M2261.2,681.2v52.5M2261.2,681.2h55.2M2261.2,733.7v52.5M2261.2,733.7h55.2M2261.2,786.2v52.5M2261.2,786.2h55.2M2261.2,838.6v52.5M2261.2,838.6h55.2M2261.2,891.1h55.2M2316.4-158.2v52.5M2316.4-158.2h55.2M2316.4-105.8v52.5M2316.4-105.8h55.2M2316.4-53.3V-.8M2316.4-53.3h55.2M2316.4-.8v52.5M2316.4-.8h55.2M2316.4,51.6v52.5M2316.4,51.6h55.2M2316.4,104.1v52.5M2316.4,104.1h55.2M2316.4,156.6v52.5M2316.4,156.6h55.2M2316.4,209v52.5M2316.4,209h55.2M2316.4,261.5v52.5M2316.4,261.5h55.2M2316.4,314v52.5M2316.4,314h55.2M2316.4,366.4v52.5M2316.4,366.4h55.2M2316.4,418.9v52.5M2316.4,418.9h55.2M2316.4,471.4v52.5M2316.4,471.4h55.2M2316.4,523.8v52.5M2316.4,523.8h55.2M2316.4,576.3v52.5M2316.4,576.3h55.2M2316.4,628.8v52.5M2316.4,628.8h55.2M2316.4,681.2v52.5M2316.4,681.2h55.2M2316.4,733.7v52.5M2316.4,733.7h55.2M2316.4,786.2v52.5M2316.4,786.2h55.2M2316.4,838.6v52.5M2316.4,838.6h55.2M2316.4,891.1h55.2M2371.6-158.2v52.5M2371.6-158.2h55.2v52.5M2371.6-105.8v52.5M2371.6-105.8h55.2M2371.6-53.3V-.8M2371.6-53.3h55.2M2371.6-.8v52.5M2371.6-.8h55.2M2371.6,51.6v52.5M2371.6,51.6h55.2M2371.6,104.1v52.5M2371.6,104.1h55.2M2371.6,156.6v52.5M2371.6,156.6h55.2M2371.6,209v52.5M2371.6,209h55.2M2371.6,261.5v52.5M2371.6,261.5h55.2M2371.6,314v52.5M2371.6,314h55.2M2371.6,366.4v52.5M2371.6,366.4h55.2M2371.6,418.9v52.5M2371.6,418.9h55.2M2371.6,471.4v52.5M2371.6,471.4h55.2M2371.6,523.8v52.5M2371.6,523.8h55.2M2371.6,576.3v52.5M2371.6,576.3h55.2M2371.6,628.8v52.5M2371.6,628.8h55.2M2371.6,681.2v52.5M2371.6,681.2h55.2M2371.6,733.7v52.5M2371.6,733.7h55.2M2371.6,786.2v52.5M2371.6,786.2h55.2M2371.6,838.6v52.5M2371.6,838.6h55.2M2371.6,891.1h55.2v-52.5M2426.8-105.8v52.5M2426.8-53.3V-.8M2426.8-.8v52.5M2426.8,51.6v52.5M2426.8,104.1v52.5M2426.8,156.6v52.5M2426.8,209v52.5M2426.8,261.5v52.5M2426.8,314v52.5M2426.8,366.4v52.5M2426.8,418.9v52.5M2426.8,471.4v52.5M2426.8,523.8v52.5M2426.8,576.3v52.5M2426.8,628.8v52.5M2426.8,681.2v52.5M2426.8,733.7v52.5M2426.8,786.2v52.5"/>
          </g>
        </g>
      </g>
    </g>
  </g>
</svg>
