<svg xmlns="http://www.w3.org/2000/svg" xmlns:xlink="http://www.w3.org/1999/xlink" zoomAndPan="magnify" preserveAspectRatio="xMidYMid meet" version="1.0" viewBox="0 100.8 1008 1087.73"><defs><clipPath id="9da7b8769d"><path d="M 0 100.800781 L 1008 100.800781 L 1008 1188.300781 L 0 1188.300781 Z M 0 100.800781 " clip-rule="nonzero"/></clipPath></defs><g clip-path="url(#9da7b8769d)"><path fill="#ffffff" d="M 1008 157.695312 L 963.078125 157.695312 L 963.078125 100.835938 L 556.964844 100.835938 L 556.964844 150.84375 L 505.367188 150.84375 L 505.367188 480.40625 L 455.359375 480.40625 L 455.359375 532.003906 L 380.609375 532.003906 L 380.609375 579.382812 L 304.265625 579.382812 L 304.265625 633.089844 L 251.628906 633.089844 L 251.628906 682.578125 L 151.058594 682.578125 L 151.058594 633.609375 L 100.535156 633.609375 L 100.535156 583.085938 L 50.007812 583.085938 L 50.007812 480.40625 L 0 480.40625 L 0 782.59375 L 48.449219 782.59375 L 48.449219 834.191406 L 101.085938 834.191406 L 101.085938 885.273438 L 151.09375 885.273438 L 151.09375 935.800781 L 201.621094 935.800781 L 201.621094 984.769531 L 251.628906 984.769531 L 251.628906 1188.5 L 354.308594 1188.5 L 354.308594 1136.382812 L 303.226562 1136.382812 L 303.226562 1086.375 L 353.753906 1086.375 L 353.753906 1035.847656 L 404.28125 1035.847656 L 404.28125 985.839844 L 455.359375 985.839844 L 455.359375 1035.847656 L 503.984375 1035.847656 L 503.984375 1188.535156 L 605.414062 1188.535156 L 605.414062 1136.933594 L 556.445312 1136.933594 L 556.445312 935.28125 L 605.414062 935.28125 L 605.414062 884.199219 L 657.535156 884.199219 L 657.535156 808.375 L 707.023438 808.375 L 707.023438 631.535156 L 758.621094 631.535156 L 758.621094 680.503906 L 807.589844 680.503906 L 807.589844 581.527344 L 707.574219 581.527344 L 707.574219 479.921875 L 908.679688 479.921875 L 908.679688 429.394531 L 758.621094 429.394531 L 758.101562 373.953125 L 1008 373.953125 Z M 656.910156 227.773438 L 606.386719 227.773438 L 606.386719 177.246094 L 656.910156 177.246094 Z M 656.910156 227.773438 " fill-opacity="1" fill-rule="nonzero"/></g></svg>