<?xml version="1.0" standalone="no"?>
<!DOCTYPE svg PUBLIC "-//W3C//DTD SVG 20010904//EN"
 "http://www.w3.org/TR/2001/REC-SVG-20010904/DTD/svg10.dtd">
<svg version="1.0" xmlns="http://www.w3.org/2000/svg"
 width="512.000000pt" height="512.000000pt" viewBox="0 0 512.000000 512.000000"
 preserveAspectRatio="xMidYMid meet">

<g transform="translate(0.000000,512.000000) scale(0.100000,-0.100000)"
fill="#ffffff" stroke="none" opacity="0.9">
<path d="M318 5099 c-43 -22 -78 -81 -78 -129 0 -50 35 -107 80 -130 36 -18
58 -20 273 -20 l234 0 61 -31 c69 -34 105 -71 138 -144 21 -46 33 -161 148
-1435 69 -762 131 -1412 137 -1445 37 -208 223 -405 435 -460 51 -13 243 -15
1542 -15 1292 0 1487 2 1512 15 102 53 100 206 -3 263 -30 16 -132 17 -1512
22 l-1480 5 -42 23 c-82 43 -145 125 -157 205 -3 20 -8 53 -11 72 l-6 35 1318
0 c1463 0 1381 -3 1517 67 85 44 198 152 243 233 66 116 68 129 144 965 79
875 79 855 14 993 -59 124 -168 218 -314 270 -42 15 -192 17 -1598 19 l-1551
3 -7 68 c-17 168 -71 288 -180 398 -46 45 -95 83 -141 107 -114 59 -166 67
-439 66 -219 0 -243 -2 -277 -20z m2734 -1286 c16 -10 39 -34 51 -53 21 -34
22 -48 27 -353 l5 -317 100 100 c112 114 137 130 195 130 74 0 133 -48 146
-117 14 -74 0 -93 -273 -365 -224 -223 -263 -257 -296 -264 -79 -14 -95 -2
-369 273 -223 224 -257 263 -264 296 -9 53 10 110 47 141 38 32 67 40 126 33
42 -4 53 -13 157 -116 61 -61 114 -111 118 -111 4 0 9 149 10 331 l3 330 42
40 c38 35 48 39 94 39 30 0 63 -7 81 -17z"/>
<path d="M2010 921 c-89 -29 -141 -60 -202 -122 -102 -105 -153 -258 -130
-395 45 -275 315 -457 575 -389 123 32 218 101 287 207 53 82 73 164 68 280
-3 82 -8 102 -40 168 -83 171 -241 271 -427 269 -44 0 -99 -7 -131 -18z"/>
<path d="M3958 929 c-68 -16 -161 -70 -219 -128 -185 -185 -184 -475 1 -661
186 -185 476 -186 661 -1 121 121 167 291 123 456 -40 155 -175 289 -329 330
-64 16 -177 18 -237 4z"/>
</g>
</svg>
