<svg xmlns="http://www.w3.org/2000/svg" width="100" height="100" id="fuel-pump"><path d="M82.755 87H70.47v-5.88a2 2 0 0 0-4 0V87H26.61V23.94c0-6.032 4.908-10.94 10.94-10.94h17.98c6.032 0 10.939 4.908 10.939 10.94V65.5a2 2 0 0 0 4 0V23.94C70.47 15.702 63.768 9 55.53 9H37.55c-8.238 0-14.94 6.702-14.94 14.94V87H10.326a2 2 0 0 0 0 4h72.429a2 2 0 0 0 0-4z"></path><path d="M42.586 64.581a2 2 0 0 0 0-4h-8.267a2 2 0 0 0 0 4h8.267z"></path><path d="M89.674 37.217h-9.346a2 2 0 0 0-2 2v23.364c0 4.843-3.94 8.783-8.783 8.783s-8.783-3.94-8.783-8.783c0-.188-.034-.367-.083-.54.049-.173.083-.351.083-.54v-9.166l-.001-.01V23.221a2 2 0 0 0-2-2H34.319a2 2 0 0 0-2 2v29.115a2 2 0 0 0 2 2h22.443v7.166c0 .188.034.367.083.54a1.965 1.965 0 0 0-.083.54c0 7.049 5.734 12.783 12.783 12.783s12.783-5.734 12.783-12.783V41.217h5.346v2.133a2 2 0 0 0 4 0v-4.133a2 2 0 0 0-2-2zM56.761 50.336H36.319V25.221h20.442v25.115z"></path></svg>