<svg xmlns="http://www.w3.org/2000/svg" xmlns:xlink="http://www.w3.org/1999/xlink" zoomAndPan="magnify" preserveAspectRatio="xMidYMid meet" version="1.0" viewBox="56.21 466.05 993.23 176.58"><defs><g/></defs><g fill="#fd6155" fill-opacity="0.302"><g transform="translate(59.117453, 641.004886)"><g><path d="M 34.953125 0 L 34.953125 -160.132812 L 69.742188 -160.132812 C 88.925781 -160.132812 96.566406 -148.425781 96.566406 -133.144531 C 96.566406 -90.550781 47.46875 -88.601562 47.46875 -72.832031 C 47.46875 -62.425781 68.28125 -30.238281 81.933594 -12.355469 C 90.390625 -1.300781 90.875 0 100.46875 0 L 127.292969 0 L 127.292969 -0.976562 C 115.585938 -0.976562 66.328125 -72.667969 66.328125 -83.886719 C 66.328125 -93.804688 120.140625 -95.429688 120.140625 -134.609375 C 120.140625 -147.9375 111.523438 -162.570312 93.804688 -162.570312 L 11.378906 -162.570312 L 11.378906 0 Z M 34.953125 0 "/></g></g></g><g fill="#fd6155" fill-opacity="0.302"><g transform="translate(182.339504, 641.004886)"><g><path d="M 0 -100.46875 L 0 -99.65625 C 7.964844 -99.65625 11.542969 -97.867188 11.542969 -89.089844 L 11.542969 0 L 35.113281 0 L 35.113281 -112.171875 C 26.660156 -107.296875 12.03125 -101.929688 0 -100.46875 Z M 8.617188 -131.519531 C 8.617188 -124.039062 14.632812 -118.027344 22.109375 -118.027344 C 29.585938 -118.027344 35.601562 -124.039062 35.601562 -131.519531 C 35.601562 -138.835938 29.585938 -144.851562 22.109375 -144.851562 C 14.632812 -144.851562 8.617188 -138.835938 8.617188 -131.519531 Z M 8.617188 -131.519531 "/></g></g></g><g fill="#fd6155" fill-opacity="0.302"><g transform="translate(223.630093, 641.004886)"><g><path d="M 8.128906 -46.65625 C 8.128906 -22.273438 18.371094 1.625 43.40625 1.625 C 58.6875 1.625 69.578125 -6.828125 76.082031 -19.671875 L 76.082031 0 L 99.65625 0 L 99.65625 -164.195312 C 91.203125 -159.320312 76.570312 -153.953125 64.539062 -152.492188 L 64.539062 -151.679688 C 72.507812 -151.679688 76.082031 -150.539062 76.082031 -141.761719 L 76.082031 -110.546875 L 70.554688 -110.546875 C 33 -110.546875 8.128906 -85.675781 8.128906 -46.65625 Z M 29.914062 -50.558594 C 29.914062 -83.886719 47.46875 -108.109375 69.578125 -108.109375 L 76.082031 -108.109375 L 76.082031 -27.3125 C 75.59375 -22.109375 72.507812 -13.65625 56.898438 -13.65625 C 38.855469 -13.65625 29.914062 -33.164062 29.914062 -50.558594 Z M 29.914062 -50.558594 "/></g></g></g><g fill="#fd6155" fill-opacity="0.302"><g transform="translate(327.182098, 641.004886)"><g><path d="M 63.238281 1.625 C 73.644531 1.625 84.375 0 92.988281 -4.390625 L 102.257812 -33.488281 L 101.445312 -33.488281 C 95.101562 -25.359375 83.074219 -19.996094 70.878906 -19.996094 C 55.597656 -19.996094 43.242188 -26.660156 35.113281 -37.390625 C 42.105469 -41.128906 58.523438 -49.910156 74.132812 -57.386719 C 87.789062 -63.890625 100.957031 -68.605469 100.957031 -83.234375 C 100.957031 -98.191406 85.1875 -112.171875 61.125 -112.171875 C 23.410156 -112.171875 8.128906 -83.886719 8.128906 -53.648438 C 8.128906 -22.273438 33 1.625 63.238281 1.625 Z M 49.097656 -107.457031 C 72.179688 -107.457031 77.382812 -91.851562 77.382812 -83.234375 C 77.382812 -65.515625 43.570312 -44.707031 33.816406 -39.179688 C 26.988281 -48.933594 23.246094 -61.613281 23.246094 -75.433594 C 23.246094 -91.203125 31.050781 -107.457031 49.097656 -107.457031 Z M 49.097656 -107.457031 "/></g></g></g><g fill="#fd6155" fill-opacity="0.302"><g transform="translate(428.62078, 641.004886)"><g/></g></g><g fill="#fd6155" fill-opacity="0.302"><g transform="translate(489.581437, 641.004886)"><g><path d="M 0 -100.46875 L 0 -99.65625 C 7.964844 -99.65625 11.542969 -97.867188 11.542969 -89.089844 L 11.542969 0 L 35.113281 0 L 35.113281 -61.453125 C 35.113281 -84.046875 48.769531 -104.859375 66.164062 -104.859375 C 73.96875 -104.859375 79.335938 -99.816406 79.335938 -89.414062 L 79.335938 0 L 102.90625 0 L 102.90625 -81.285156 C 102.90625 -110.546875 83.5625 -112.171875 74.945312 -112.171875 C 51.371094 -112.171875 37.390625 -90.875 35.113281 -77.222656 L 35.113281 -112.171875 C 26.660156 -107.296875 12.03125 -101.929688 0 -100.46875 Z M 0 -100.46875 "/></g></g></g><g fill="#fd6155" fill-opacity="0.302"><g transform="translate(598.172859, 641.004886)"><g/></g></g><g fill="#fd6155" fill-opacity="0.302"><g transform="translate(659.133517, 641.004886)"><g><path d="M 34.953125 0 L 34.953125 -160.132812 L 69.742188 -160.132812 C 88.925781 -160.132812 96.566406 -148.425781 96.566406 -133.144531 C 96.566406 -90.550781 47.46875 -88.601562 47.46875 -72.832031 C 47.46875 -62.425781 68.28125 -30.238281 81.933594 -12.355469 C 90.390625 -1.300781 90.875 0 100.46875 0 L 127.292969 0 L 127.292969 -0.976562 C 115.585938 -0.976562 66.328125 -72.667969 66.328125 -83.886719 C 66.328125 -93.804688 120.140625 -95.429688 120.140625 -134.609375 C 120.140625 -147.9375 111.523438 -162.570312 93.804688 -162.570312 L 11.378906 -162.570312 L 11.378906 0 Z M 34.953125 0 "/></g></g></g><g fill="#fd6155" fill-opacity="0.302"><g transform="translate(782.355568, 641.004886)"><g><path d="M 63.238281 1.625 C 73.644531 1.625 84.375 0 92.988281 -4.390625 L 102.257812 -33.488281 L 101.445312 -33.488281 C 95.101562 -25.359375 83.074219 -19.996094 70.878906 -19.996094 C 55.597656 -19.996094 43.242188 -26.660156 35.113281 -37.390625 C 42.105469 -41.128906 58.523438 -49.910156 74.132812 -57.386719 C 87.789062 -63.890625 100.957031 -68.605469 100.957031 -83.234375 C 100.957031 -98.191406 85.1875 -112.171875 61.125 -112.171875 C 23.410156 -112.171875 8.128906 -83.886719 8.128906 -53.648438 C 8.128906 -22.273438 33 1.625 63.238281 1.625 Z M 49.097656 -107.457031 C 72.179688 -107.457031 77.382812 -91.851562 77.382812 -83.234375 C 77.382812 -65.515625 43.570312 -44.707031 33.816406 -39.179688 C 26.988281 -48.933594 23.246094 -61.613281 23.246094 -75.433594 C 23.246094 -91.203125 31.050781 -107.457031 49.097656 -107.457031 Z M 49.097656 -107.457031 "/></g></g></g><g fill="#fd6155" fill-opacity="0.302"><g transform="translate(883.794204, 641.004886)"><g><path d="M 0 -100.46875 L 0 -99.65625 C 7.964844 -99.65625 11.542969 -97.867188 11.542969 -89.089844 L 11.542969 0 L 35.113281 0 L 35.113281 -61.453125 C 35.113281 -84.046875 48.769531 -104.859375 66.164062 -104.859375 C 73.96875 -104.859375 79.335938 -99.816406 79.335938 -89.414062 L 79.335938 0 L 102.90625 0 L 102.90625 -81.285156 C 102.90625 -110.546875 83.5625 -112.171875 74.945312 -112.171875 C 51.371094 -112.171875 37.390625 -90.875 35.113281 -77.222656 L 35.113281 -112.171875 C 26.660156 -107.296875 12.03125 -101.929688 0 -100.46875 Z M 0 -100.46875 "/></g></g></g><g fill="#fd6155" fill-opacity="0.302"><g transform="translate(992.385625, 641.004886)"><g><path d="M 13.492188 -108.109375 L 13.492188 -18.207031 C 13.492188 -8.453125 19.832031 1.625 32.675781 1.625 C 37.390625 1.625 49.746094 -6.664062 57.0625 -11.054688 L 56.738281 -11.867188 C 54.296875 -10.890625 51.535156 -10.566406 48.609375 -10.566406 C 38.855469 -10.566406 37.066406 -17.882812 37.066406 -25.847656 C 37.066406 -58.363281 37.066406 -81.285156 37.230469 -108.109375 L 54.136719 -108.109375 L 54.136719 -110.546875 L 37.230469 -110.546875 C 37.230469 -121.277344 37.390625 -132.65625 37.390625 -145.664062 L 0 -108.109375 Z M 13.492188 -108.109375 "/></g></g></g><g fill="#fd6155" fill-opacity="0.502"><g transform="translate(51.976443, 635.623751)"><g><path d="M 34.953125 0 L 34.953125 -160.132812 L 69.742188 -160.132812 C 88.925781 -160.132812 96.566406 -148.425781 96.566406 -133.144531 C 96.566406 -90.550781 47.46875 -88.601562 47.46875 -72.832031 C 47.46875 -62.425781 68.28125 -30.238281 81.933594 -12.355469 C 90.390625 -1.300781 90.875 0 100.46875 0 L 127.292969 0 L 127.292969 -0.976562 C 115.585938 -0.976562 66.328125 -72.667969 66.328125 -83.886719 C 66.328125 -93.804688 120.140625 -95.429688 120.140625 -134.609375 C 120.140625 -147.9375 111.523438 -162.570312 93.804688 -162.570312 L 11.378906 -162.570312 L 11.378906 0 Z M 34.953125 0 "/></g></g></g><g fill="#fd6155" fill-opacity="0.502"><g transform="translate(175.198495, 635.623751)"><g><path d="M 0 -100.46875 L 0 -99.65625 C 7.964844 -99.65625 11.542969 -97.867188 11.542969 -89.089844 L 11.542969 0 L 35.113281 0 L 35.113281 -112.171875 C 26.660156 -107.296875 12.03125 -101.929688 0 -100.46875 Z M 8.617188 -131.519531 C 8.617188 -124.039062 14.632812 -118.027344 22.109375 -118.027344 C 29.585938 -118.027344 35.601562 -124.039062 35.601562 -131.519531 C 35.601562 -138.835938 29.585938 -144.851562 22.109375 -144.851562 C 14.632812 -144.851562 8.617188 -138.835938 8.617188 -131.519531 Z M 8.617188 -131.519531 "/></g></g></g><g fill="#fd6155" fill-opacity="0.502"><g transform="translate(216.489083, 635.623751)"><g><path d="M 8.128906 -46.65625 C 8.128906 -22.273438 18.371094 1.625 43.40625 1.625 C 58.6875 1.625 69.578125 -6.828125 76.082031 -19.671875 L 76.082031 0 L 99.65625 0 L 99.65625 -164.195312 C 91.203125 -159.320312 76.570312 -153.953125 64.539062 -152.492188 L 64.539062 -151.679688 C 72.507812 -151.679688 76.082031 -150.539062 76.082031 -141.761719 L 76.082031 -110.546875 L 70.554688 -110.546875 C 33 -110.546875 8.128906 -85.675781 8.128906 -46.65625 Z M 29.914062 -50.558594 C 29.914062 -83.886719 47.46875 -108.109375 69.578125 -108.109375 L 76.082031 -108.109375 L 76.082031 -27.3125 C 75.59375 -22.109375 72.507812 -13.65625 56.898438 -13.65625 C 38.855469 -13.65625 29.914062 -33.164062 29.914062 -50.558594 Z M 29.914062 -50.558594 "/></g></g></g><g fill="#fd6155" fill-opacity="0.502"><g transform="translate(320.041088, 635.623751)"><g><path d="M 63.238281 1.625 C 73.644531 1.625 84.375 0 92.988281 -4.390625 L 102.257812 -33.488281 L 101.445312 -33.488281 C 95.101562 -25.359375 83.074219 -19.996094 70.878906 -19.996094 C 55.597656 -19.996094 43.242188 -26.660156 35.113281 -37.390625 C 42.105469 -41.128906 58.523438 -49.910156 74.132812 -57.386719 C 87.789062 -63.890625 100.957031 -68.605469 100.957031 -83.234375 C 100.957031 -98.191406 85.1875 -112.171875 61.125 -112.171875 C 23.410156 -112.171875 8.128906 -83.886719 8.128906 -53.648438 C 8.128906 -22.273438 33 1.625 63.238281 1.625 Z M 49.097656 -107.457031 C 72.179688 -107.457031 77.382812 -91.851562 77.382812 -83.234375 C 77.382812 -65.515625 43.570312 -44.707031 33.816406 -39.179688 C 26.988281 -48.933594 23.246094 -61.613281 23.246094 -75.433594 C 23.246094 -91.203125 31.050781 -107.457031 49.097656 -107.457031 Z M 49.097656 -107.457031 "/></g></g></g><g fill="#fd6155" fill-opacity="0.502"><g transform="translate(421.47977, 635.623751)"><g/></g></g><g fill="#fd6155" fill-opacity="0.502"><g transform="translate(482.440428, 635.623751)"><g><path d="M 0 -100.46875 L 0 -99.65625 C 7.964844 -99.65625 11.542969 -97.867188 11.542969 -89.089844 L 11.542969 0 L 35.113281 0 L 35.113281 -61.453125 C 35.113281 -84.046875 48.769531 -104.859375 66.164062 -104.859375 C 73.96875 -104.859375 79.335938 -99.816406 79.335938 -89.414062 L 79.335938 0 L 102.90625 0 L 102.90625 -81.285156 C 102.90625 -110.546875 83.5625 -112.171875 74.945312 -112.171875 C 51.371094 -112.171875 37.390625 -90.875 35.113281 -77.222656 L 35.113281 -112.171875 C 26.660156 -107.296875 12.03125 -101.929688 0 -100.46875 Z M 0 -100.46875 "/></g></g></g><g fill="#fd6155" fill-opacity="0.502"><g transform="translate(591.031849, 635.623751)"><g/></g></g><g fill="#fd6155" fill-opacity="0.502"><g transform="translate(651.992507, 635.623751)"><g><path d="M 34.953125 0 L 34.953125 -160.132812 L 69.742188 -160.132812 C 88.925781 -160.132812 96.566406 -148.425781 96.566406 -133.144531 C 96.566406 -90.550781 47.46875 -88.601562 47.46875 -72.832031 C 47.46875 -62.425781 68.28125 -30.238281 81.933594 -12.355469 C 90.390625 -1.300781 90.875 0 100.46875 0 L 127.292969 0 L 127.292969 -0.976562 C 115.585938 -0.976562 66.328125 -72.667969 66.328125 -83.886719 C 66.328125 -93.804688 120.140625 -95.429688 120.140625 -134.609375 C 120.140625 -147.9375 111.523438 -162.570312 93.804688 -162.570312 L 11.378906 -162.570312 L 11.378906 0 Z M 34.953125 0 "/></g></g></g><g fill="#fd6155" fill-opacity="0.502"><g transform="translate(775.214558, 635.623751)"><g><path d="M 63.238281 1.625 C 73.644531 1.625 84.375 0 92.988281 -4.390625 L 102.257812 -33.488281 L 101.445312 -33.488281 C 95.101562 -25.359375 83.074219 -19.996094 70.878906 -19.996094 C 55.597656 -19.996094 43.242188 -26.660156 35.113281 -37.390625 C 42.105469 -41.128906 58.523438 -49.910156 74.132812 -57.386719 C 87.789062 -63.890625 100.957031 -68.605469 100.957031 -83.234375 C 100.957031 -98.191406 85.1875 -112.171875 61.125 -112.171875 C 23.410156 -112.171875 8.128906 -83.886719 8.128906 -53.648438 C 8.128906 -22.273438 33 1.625 63.238281 1.625 Z M 49.097656 -107.457031 C 72.179688 -107.457031 77.382812 -91.851562 77.382812 -83.234375 C 77.382812 -65.515625 43.570312 -44.707031 33.816406 -39.179688 C 26.988281 -48.933594 23.246094 -61.613281 23.246094 -75.433594 C 23.246094 -91.203125 31.050781 -107.457031 49.097656 -107.457031 Z M 49.097656 -107.457031 "/></g></g></g><g fill="#fd6155" fill-opacity="0.502"><g transform="translate(876.653194, 635.623751)"><g><path d="M 0 -100.46875 L 0 -99.65625 C 7.964844 -99.65625 11.542969 -97.867188 11.542969 -89.089844 L 11.542969 0 L 35.113281 0 L 35.113281 -61.453125 C 35.113281 -84.046875 48.769531 -104.859375 66.164062 -104.859375 C 73.96875 -104.859375 79.335938 -99.816406 79.335938 -89.414062 L 79.335938 0 L 102.90625 0 L 102.90625 -81.285156 C 102.90625 -110.546875 83.5625 -112.171875 74.945312 -112.171875 C 51.371094 -112.171875 37.390625 -90.875 35.113281 -77.222656 L 35.113281 -112.171875 C 26.660156 -107.296875 12.03125 -101.929688 0 -100.46875 Z M 0 -100.46875 "/></g></g></g><g fill="#fd6155" fill-opacity="0.502"><g transform="translate(985.244615, 635.623751)"><g><path d="M 13.492188 -108.109375 L 13.492188 -18.207031 C 13.492188 -8.453125 19.832031 1.625 32.675781 1.625 C 37.390625 1.625 49.746094 -6.664062 57.0625 -11.054688 L 56.738281 -11.867188 C 54.296875 -10.890625 51.535156 -10.566406 48.609375 -10.566406 C 38.855469 -10.566406 37.066406 -17.882812 37.066406 -25.847656 C 37.066406 -58.363281 37.066406 -81.285156 37.230469 -108.109375 L 54.136719 -108.109375 L 54.136719 -110.546875 L 37.230469 -110.546875 C 37.230469 -121.277344 37.390625 -132.65625 37.390625 -145.664062 L 0 -108.109375 Z M 13.492188 -108.109375 "/></g></g></g><g fill="#f6f3e4" fill-opacity="1"><g transform="translate(44.835434, 630.242615)"><g><path d="M 34.953125 0 L 34.953125 -160.132812 L 69.742188 -160.132812 C 88.925781 -160.132812 96.566406 -148.425781 96.566406 -133.144531 C 96.566406 -90.550781 47.46875 -88.601562 47.46875 -72.832031 C 47.46875 -62.425781 68.28125 -30.238281 81.933594 -12.355469 C 90.390625 -1.300781 90.875 0 100.46875 0 L 127.292969 0 L 127.292969 -0.976562 C 115.585938 -0.976562 66.328125 -72.667969 66.328125 -83.886719 C 66.328125 -93.804688 120.140625 -95.429688 120.140625 -134.609375 C 120.140625 -147.9375 111.523438 -162.570312 93.804688 -162.570312 L 11.378906 -162.570312 L 11.378906 0 Z M 34.953125 0 "/></g></g></g><g fill="#f6f3e4" fill-opacity="1"><g transform="translate(168.057485, 630.242615)"><g><path d="M 0 -100.46875 L 0 -99.65625 C 7.964844 -99.65625 11.542969 -97.867188 11.542969 -89.089844 L 11.542969 0 L 35.113281 0 L 35.113281 -112.171875 C 26.660156 -107.296875 12.03125 -101.929688 0 -100.46875 Z M 8.617188 -131.519531 C 8.617188 -124.039062 14.632812 -118.027344 22.109375 -118.027344 C 29.585938 -118.027344 35.601562 -124.039062 35.601562 -131.519531 C 35.601562 -138.835938 29.585938 -144.851562 22.109375 -144.851562 C 14.632812 -144.851562 8.617188 -138.835938 8.617188 -131.519531 Z M 8.617188 -131.519531 "/></g></g></g><g fill="#f6f3e4" fill-opacity="1"><g transform="translate(209.348074, 630.242615)"><g><path d="M 8.128906 -46.65625 C 8.128906 -22.273438 18.371094 1.625 43.40625 1.625 C 58.6875 1.625 69.578125 -6.828125 76.082031 -19.671875 L 76.082031 0 L 99.65625 0 L 99.65625 -164.195312 C 91.203125 -159.320312 76.570312 -153.953125 64.539062 -152.492188 L 64.539062 -151.679688 C 72.507812 -151.679688 76.082031 -150.539062 76.082031 -141.761719 L 76.082031 -110.546875 L 70.554688 -110.546875 C 33 -110.546875 8.128906 -85.675781 8.128906 -46.65625 Z M 29.914062 -50.558594 C 29.914062 -83.886719 47.46875 -108.109375 69.578125 -108.109375 L 76.082031 -108.109375 L 76.082031 -27.3125 C 75.59375 -22.109375 72.507812 -13.65625 56.898438 -13.65625 C 38.855469 -13.65625 29.914062 -33.164062 29.914062 -50.558594 Z M 29.914062 -50.558594 "/></g></g></g><g fill="#f6f3e4" fill-opacity="1"><g transform="translate(312.900078, 630.242615)"><g><path d="M 63.238281 1.625 C 73.644531 1.625 84.375 0 92.988281 -4.390625 L 102.257812 -33.488281 L 101.445312 -33.488281 C 95.101562 -25.359375 83.074219 -19.996094 70.878906 -19.996094 C 55.597656 -19.996094 43.242188 -26.660156 35.113281 -37.390625 C 42.105469 -41.128906 58.523438 -49.910156 74.132812 -57.386719 C 87.789062 -63.890625 100.957031 -68.605469 100.957031 -83.234375 C 100.957031 -98.191406 85.1875 -112.171875 61.125 -112.171875 C 23.410156 -112.171875 8.128906 -83.886719 8.128906 -53.648438 C 8.128906 -22.273438 33 1.625 63.238281 1.625 Z M 49.097656 -107.457031 C 72.179688 -107.457031 77.382812 -91.851562 77.382812 -83.234375 C 77.382812 -65.515625 43.570312 -44.707031 33.816406 -39.179688 C 26.988281 -48.933594 23.246094 -61.613281 23.246094 -75.433594 C 23.246094 -91.203125 31.050781 -107.457031 49.097656 -107.457031 Z M 49.097656 -107.457031 "/></g></g></g><g fill="#f6f3e4" fill-opacity="1"><g transform="translate(414.33876, 630.242615)"><g/></g></g><g fill="#f6f3e4" fill-opacity="1"><g transform="translate(475.299418, 630.242615)"><g><path d="M 0 -100.46875 L 0 -99.65625 C 7.964844 -99.65625 11.542969 -97.867188 11.542969 -89.089844 L 11.542969 0 L 35.113281 0 L 35.113281 -61.453125 C 35.113281 -84.046875 48.769531 -104.859375 66.164062 -104.859375 C 73.96875 -104.859375 79.335938 -99.816406 79.335938 -89.414062 L 79.335938 0 L 102.90625 0 L 102.90625 -81.285156 C 102.90625 -110.546875 83.5625 -112.171875 74.945312 -112.171875 C 51.371094 -112.171875 37.390625 -90.875 35.113281 -77.222656 L 35.113281 -112.171875 C 26.660156 -107.296875 12.03125 -101.929688 0 -100.46875 Z M 0 -100.46875 "/></g></g></g><g fill="#f6f3e4" fill-opacity="1"><g transform="translate(583.890839, 630.242615)"><g/></g></g><g fill="#f6f3e4" fill-opacity="1"><g transform="translate(644.851497, 630.242615)"><g><path d="M 34.953125 0 L 34.953125 -160.132812 L 69.742188 -160.132812 C 88.925781 -160.132812 96.566406 -148.425781 96.566406 -133.144531 C 96.566406 -90.550781 47.46875 -88.601562 47.46875 -72.832031 C 47.46875 -62.425781 68.28125 -30.238281 81.933594 -12.355469 C 90.390625 -1.300781 90.875 0 100.46875 0 L 127.292969 0 L 127.292969 -0.976562 C 115.585938 -0.976562 66.328125 -72.667969 66.328125 -83.886719 C 66.328125 -93.804688 120.140625 -95.429688 120.140625 -134.609375 C 120.140625 -147.9375 111.523438 -162.570312 93.804688 -162.570312 L 11.378906 -162.570312 L 11.378906 0 Z M 34.953125 0 "/></g></g></g><g fill="#f6f3e4" fill-opacity="1"><g transform="translate(768.073548, 630.242615)"><g><path d="M 63.238281 1.625 C 73.644531 1.625 84.375 0 92.988281 -4.390625 L 102.257812 -33.488281 L 101.445312 -33.488281 C 95.101562 -25.359375 83.074219 -19.996094 70.878906 -19.996094 C 55.597656 -19.996094 43.242188 -26.660156 35.113281 -37.390625 C 42.105469 -41.128906 58.523438 -49.910156 74.132812 -57.386719 C 87.789062 -63.890625 100.957031 -68.605469 100.957031 -83.234375 C 100.957031 -98.191406 85.1875 -112.171875 61.125 -112.171875 C 23.410156 -112.171875 8.128906 -83.886719 8.128906 -53.648438 C 8.128906 -22.273438 33 1.625 63.238281 1.625 Z M 49.097656 -107.457031 C 72.179688 -107.457031 77.382812 -91.851562 77.382812 -83.234375 C 77.382812 -65.515625 43.570312 -44.707031 33.816406 -39.179688 C 26.988281 -48.933594 23.246094 -61.613281 23.246094 -75.433594 C 23.246094 -91.203125 31.050781 -107.457031 49.097656 -107.457031 Z M 49.097656 -107.457031 "/></g></g></g><g fill="#f6f3e4" fill-opacity="1"><g transform="translate(869.512184, 630.242615)"><g><path d="M 0 -100.46875 L 0 -99.65625 C 7.964844 -99.65625 11.542969 -97.867188 11.542969 -89.089844 L 11.542969 0 L 35.113281 0 L 35.113281 -61.453125 C 35.113281 -84.046875 48.769531 -104.859375 66.164062 -104.859375 C 73.96875 -104.859375 79.335938 -99.816406 79.335938 -89.414062 L 79.335938 0 L 102.90625 0 L 102.90625 -81.285156 C 102.90625 -110.546875 83.5625 -112.171875 74.945312 -112.171875 C 51.371094 -112.171875 37.390625 -90.875 35.113281 -77.222656 L 35.113281 -112.171875 C 26.660156 -107.296875 12.03125 -101.929688 0 -100.46875 Z M 0 -100.46875 "/></g></g></g><g fill="#f6f3e4" fill-opacity="1"><g transform="translate(978.103606, 630.242615)"><g><path d="M 13.492188 -108.109375 L 13.492188 -18.207031 C 13.492188 -8.453125 19.832031 1.625 32.675781 1.625 C 37.390625 1.625 49.746094 -6.664062 57.0625 -11.054688 L 56.738281 -11.867188 C 54.296875 -10.890625 51.535156 -10.566406 48.609375 -10.566406 C 38.855469 -10.566406 37.066406 -17.882812 37.066406 -25.847656 C 37.066406 -58.363281 37.066406 -81.285156 37.230469 -108.109375 L 54.136719 -108.109375 L 54.136719 -110.546875 L 37.230469 -110.546875 C 37.230469 -121.277344 37.390625 -132.65625 37.390625 -145.664062 L 0 -108.109375 Z M 13.492188 -108.109375 "/></g></g></g></svg>