<svg xmlns="http://www.w3.org/2000/svg" xmlns:xlink="http://www.w3.org/1999/xlink" zoomAndPan="magnify" preserveAspectRatio="xMidYMid meet" version="1.0" viewBox="59.39 157.34 250.13 44.8"><defs><g/></defs><g fill="#ffffff" fill-opacity=""><g transform="translate(56.312927, 201.374987)"><g><path d="M 3.078125 -42.25 L 18.171875 -42.25 C 22.234375 -42.25 25.546875 -41.160156 28.109375 -38.984375 C 30.671875 -36.816406 31.953125 -33.722656 31.953125 -29.703125 C 31.953125 -26.585938 31.175781 -23.976562 29.625 -21.875 C 28.070312 -19.78125 25.960938 -18.304688 23.296875 -17.453125 L 37.84375 0 L 25.59375 0 L 12.703125 -16.6875 L 12.703125 0 L 3.078125 0 Z M 12.703125 -23.5 L 13.828125 -23.5 C 14.710938 -23.5 15.460938 -23.515625 16.078125 -23.546875 C 16.691406 -23.585938 17.390625 -23.707031 18.171875 -23.90625 C 18.960938 -24.113281 19.59375 -24.40625 20.0625 -24.78125 C 20.539062 -25.15625 20.953125 -25.703125 21.296875 -26.421875 C 21.640625 -27.140625 21.8125 -28.007812 21.8125 -29.03125 C 21.8125 -30.050781 21.640625 -30.921875 21.296875 -31.640625 C 20.953125 -32.359375 20.539062 -32.90625 20.0625 -33.28125 C 19.59375 -33.65625 18.960938 -33.941406 18.171875 -34.140625 C 17.390625 -34.347656 16.691406 -34.46875 16.078125 -34.5 C 15.460938 -34.539062 14.710938 -34.5625 13.828125 -34.5625 L 12.703125 -34.5625 Z M 12.703125 -23.5 "/></g></g></g><g fill="#ffffff" fill-opacity=""><g transform="translate(88.157455, 201.374987)"><g><path d="M 3.9375 -40.90625 C 5 -41.96875 6.265625 -42.5 7.734375 -42.5 C 9.203125 -42.5 10.460938 -41.96875 11.515625 -40.90625 C 12.578125 -39.851562 13.109375 -38.59375 13.109375 -37.125 C 13.109375 -35.65625 12.578125 -34.390625 11.515625 -33.328125 C 10.460938 -32.273438 9.203125 -31.75 7.734375 -31.75 C 6.265625 -31.75 5 -32.273438 3.9375 -33.328125 C 2.882812 -34.390625 2.359375 -35.65625 2.359375 -37.125 C 2.359375 -38.59375 2.882812 -39.851562 3.9375 -40.90625 Z M 3.078125 -26.265625 L 3.078125 0 L 12.140625 0 L 12.140625 -26.265625 Z M 3.078125 -26.265625 "/></g></g></g><g fill="#ffffff" fill-opacity=""><g transform="translate(98.8055, 201.374987)"><g><path d="M 4.859375 -3.25 C 2.398438 -5.925781 1.171875 -9.207031 1.171875 -13.09375 C 1.171875 -16.988281 2.398438 -20.285156 4.859375 -22.984375 C 7.316406 -25.679688 10.441406 -27.03125 14.234375 -27.03125 C 17.710938 -27.03125 20.582031 -25.941406 22.84375 -23.765625 L 22.84375 -44.03125 L 31.90625 -44.03125 L 31.90625 0 L 22.9375 0 L 22.9375 -2.96875 L 22.84375 -2.96875 C 20.582031 -0.476562 17.710938 0.765625 14.234375 0.765625 C 10.441406 0.765625 7.316406 -0.570312 4.859375 -3.25 Z M 12.5625 -17.5625 C 11.382812 -16.40625 10.796875 -14.921875 10.796875 -13.109375 C 10.796875 -11.296875 11.359375 -9.816406 12.484375 -8.671875 C 13.617188 -7.535156 15.109375 -6.96875 16.953125 -6.96875 C 18.722656 -6.96875 20.179688 -7.546875 21.328125 -8.703125 C 22.472656 -9.867188 23.046875 -11.335938 23.046875 -13.109375 C 23.046875 -14.921875 22.457031 -16.40625 21.28125 -17.5625 C 20.101562 -18.71875 18.660156 -19.296875 16.953125 -19.296875 C 15.210938 -19.296875 13.75 -18.71875 12.5625 -17.5625 Z M 12.5625 -17.5625 "/></g></g></g><g fill="#ffffff" fill-opacity=""><g transform="translate(128.960457, 201.374987)"><g><path d="M 29.640625 -11.875 L 10.59375 -11.875 C 10.59375 -10.03125 11.191406 -8.664062 12.390625 -7.78125 C 13.585938 -6.894531 14.882812 -6.453125 16.28125 -6.453125 C 17.75 -6.453125 18.910156 -6.644531 19.765625 -7.03125 C 20.617188 -7.425781 21.59375 -8.207031 22.6875 -9.375 L 29.234375 -6.09375 C 26.503906 -1.519531 21.960938 0.765625 15.609375 0.765625 C 11.648438 0.765625 8.253906 -0.585938 5.421875 -3.296875 C 2.585938 -6.015625 1.171875 -9.285156 1.171875 -13.109375 C 1.171875 -16.929688 2.585938 -20.207031 5.421875 -22.9375 C 8.253906 -25.664062 11.648438 -27.03125 15.609375 -27.03125 C 19.773438 -27.03125 23.164062 -25.828125 25.78125 -23.421875 C 28.394531 -21.015625 29.703125 -17.578125 29.703125 -13.109375 C 29.703125 -12.492188 29.679688 -12.082031 29.640625 -11.875 Z M 10.859375 -16.890625 L 20.84375 -16.890625 C 20.632812 -18.253906 20.09375 -19.300781 19.21875 -20.03125 C 18.351562 -20.769531 17.238281 -21.140625 15.875 -21.140625 C 14.375 -21.140625 13.175781 -20.75 12.28125 -19.96875 C 11.394531 -19.1875 10.921875 -18.160156 10.859375 -16.890625 Z M 10.859375 -16.890625 "/></g></g></g><g fill="#ffffff" fill-opacity=""><g transform="translate(155.019471, 201.374987)"><g/></g></g><g fill="#ffffff" fill-opacity=""><g transform="translate(164.182732, 201.374987)"><g><path d="M 3.078125 0 L 3.078125 -26.265625 L 12.140625 -26.265625 L 12.140625 -23.5 L 12.234375 -23.5 C 14.585938 -25.851562 17.097656 -27.03125 19.765625 -27.03125 C 21.054688 -27.03125 22.34375 -26.859375 23.625 -26.515625 C 24.90625 -26.179688 26.132812 -25.65625 27.3125 -24.9375 C 28.488281 -24.21875 29.441406 -23.203125 30.171875 -21.890625 C 30.910156 -20.578125 31.28125 -19.050781 31.28125 -17.3125 L 31.28125 0 L 22.21875 0 L 22.21875 -14.84375 C 22.21875 -16.207031 21.78125 -17.398438 20.90625 -18.421875 C 20.039062 -19.453125 18.910156 -19.96875 17.515625 -19.96875 C 16.148438 -19.96875 14.910156 -19.4375 13.796875 -18.375 C 12.691406 -17.320312 12.140625 -16.144531 12.140625 -14.84375 L 12.140625 0 Z M 3.078125 0 "/></g></g></g><g fill="#ffffff" fill-opacity=""><g transform="translate(193.21131, 201.374987)"><g/></g></g><g fill="#ffffff" fill-opacity=""><g transform="translate(202.374571, 201.374987)"><g><path d="M 3.078125 -42.25 L 18.171875 -42.25 C 22.234375 -42.25 25.546875 -41.160156 28.109375 -38.984375 C 30.671875 -36.816406 31.953125 -33.722656 31.953125 -29.703125 C 31.953125 -26.585938 31.175781 -23.976562 29.625 -21.875 C 28.070312 -19.78125 25.960938 -18.304688 23.296875 -17.453125 L 37.84375 0 L 25.59375 0 L 12.703125 -16.6875 L 12.703125 0 L 3.078125 0 Z M 12.703125 -23.5 L 13.828125 -23.5 C 14.710938 -23.5 15.460938 -23.515625 16.078125 -23.546875 C 16.691406 -23.585938 17.390625 -23.707031 18.171875 -23.90625 C 18.960938 -24.113281 19.59375 -24.40625 20.0625 -24.78125 C 20.539062 -25.15625 20.953125 -25.703125 21.296875 -26.421875 C 21.640625 -27.140625 21.8125 -28.007812 21.8125 -29.03125 C 21.8125 -30.050781 21.640625 -30.921875 21.296875 -31.640625 C 20.953125 -32.359375 20.539062 -32.90625 20.0625 -33.28125 C 19.59375 -33.65625 18.960938 -33.941406 18.171875 -34.140625 C 17.390625 -34.347656 16.691406 -34.46875 16.078125 -34.5 C 15.460938 -34.539062 14.710938 -34.5625 13.828125 -34.5625 L 12.703125 -34.5625 Z M 12.703125 -23.5 "/></g></g></g><g fill="#ffffff" fill-opacity=""><g transform="translate(234.219104, 201.374987)"><g><path d="M 29.640625 -11.875 L 10.59375 -11.875 C 10.59375 -10.03125 11.191406 -8.664062 12.390625 -7.78125 C 13.585938 -6.894531 14.882812 -6.453125 16.28125 -6.453125 C 17.75 -6.453125 18.910156 -6.644531 19.765625 -7.03125 C 20.617188 -7.425781 21.59375 -8.207031 22.6875 -9.375 L 29.234375 -6.09375 C 26.503906 -1.519531 21.960938 0.765625 15.609375 0.765625 C 11.648438 0.765625 8.253906 -0.585938 5.421875 -3.296875 C 2.585938 -6.015625 1.171875 -9.285156 1.171875 -13.109375 C 1.171875 -16.929688 2.585938 -20.207031 5.421875 -22.9375 C 8.253906 -25.664062 11.648438 -27.03125 15.609375 -27.03125 C 19.773438 -27.03125 23.164062 -25.828125 25.78125 -23.421875 C 28.394531 -21.015625 29.703125 -17.578125 29.703125 -13.109375 C 29.703125 -12.492188 29.679688 -12.082031 29.640625 -11.875 Z M 10.859375 -16.890625 L 20.84375 -16.890625 C 20.632812 -18.253906 20.09375 -19.300781 19.21875 -20.03125 C 18.351562 -20.769531 17.238281 -21.140625 15.875 -21.140625 C 14.375 -21.140625 13.175781 -20.75 12.28125 -19.96875 C 11.394531 -19.1875 10.921875 -18.160156 10.859375 -16.890625 Z M 10.859375 -16.890625 "/></g></g></g><g fill="#ffffff" fill-opacity=""><g transform="translate(260.278123, 201.374987)"><g><path d="M 3.078125 0 L 3.078125 -26.265625 L 12.140625 -26.265625 L 12.140625 -23.5 L 12.234375 -23.5 C 14.585938 -25.851562 17.097656 -27.03125 19.765625 -27.03125 C 21.054688 -27.03125 22.34375 -26.859375 23.625 -26.515625 C 24.90625 -26.179688 26.132812 -25.65625 27.3125 -24.9375 C 28.488281 -24.21875 29.441406 -23.203125 30.171875 -21.890625 C 30.910156 -20.578125 31.28125 -19.050781 31.28125 -17.3125 L 31.28125 0 L 22.21875 0 L 22.21875 -14.84375 C 22.21875 -16.207031 21.78125 -17.398438 20.90625 -18.421875 C 20.039062 -19.453125 18.910156 -19.96875 17.515625 -19.96875 C 16.148438 -19.96875 14.910156 -19.4375 13.796875 -18.375 C 12.691406 -17.320312 12.140625 -16.144531 12.140625 -14.84375 L 12.140625 0 Z M 3.078125 0 "/></g></g></g><g fill="#ffffff" fill-opacity=""><g transform="translate(289.306701, 201.374987)"><g><path d="M 4.609375 -26.265625 L 4.609375 -36.046875 L 13.671875 -36.046875 L 13.671875 -26.265625 L 19.203125 -26.265625 L 19.203125 -19.359375 L 13.671875 -19.359375 L 13.671875 -11.015625 C 13.671875 -8.585938 14.351562 -7.375 15.71875 -7.375 C 16.0625 -7.375 16.421875 -7.441406 16.796875 -7.578125 C 17.171875 -7.710938 17.460938 -7.847656 17.671875 -7.984375 L 17.96875 -8.1875 L 20.21875 -0.875 C 18.28125 0.21875 16.0625 0.765625 13.5625 0.765625 C 11.863281 0.765625 10.398438 0.46875 9.171875 -0.125 C 7.941406 -0.726562 7.007812 -1.53125 6.375 -2.53125 C 5.738281 -3.539062 5.285156 -4.597656 5.015625 -5.703125 C 4.742188 -6.816406 4.609375 -8.003906 4.609375 -9.265625 L 4.609375 -19.359375 L 0.8125 -19.359375 L 0.8125 -26.265625 Z M 4.609375 -26.265625 "/></g></g></g><g fill="#ffffff" fill-opacity=""><g transform="translate(304.715258, 201.374987)"><g/></g></g></svg>
