<svg xmlns="http://www.w3.org/2000/svg" width="110" height="110" id="wheel"><path d="M84.561 50.874a29.8 29.8 0 0 0-5.754-13.848 29.812 29.812 0 0 0-5.823-5.826 29.687 29.687 0 0 0-13.856-5.761 29.718 29.718 0 0 0-4.108-.288l-.019-.002-.018.002a29.58 29.58 0 0 0-4.103.287 29.704 29.704 0 0 0-13.854 5.754 29.462 29.462 0 0 0-5.826 5.823 29.712 29.712 0 0 0-5.761 13.857A29.906 29.906 0 0 0 25.15 55l.001.04-.001.014c0 .01.003.019.003.029.004 1.346.099 2.706.286 4.043a29.8 29.8 0 0 0 5.754 13.848 29.812 29.812 0 0 0 5.823 5.826 29.687 29.687 0 0 0 13.855 5.761c1.364.192 2.753.29 4.128.29s2.764-.098 4.12-.289a29.704 29.704 0 0 0 13.854-5.754 29.462 29.462 0 0 0 5.826-5.823 29.712 29.712 0 0 0 6.047-17.901c0-.01.003-.019.003-.029l-.001-.014.001-.04a29.703 29.703 0 0 0-.288-4.127zm-5.905 1.18H67.8a13.038 13.038 0 0 0-1.621-3.935l7.678-7.678c.053.069.111.133.163.202a23.82 23.82 0 0 1 4.6 11.064c.015.115.021.232.036.347zM55 62.145c-3.939 0-7.145-3.205-7.145-7.145S51.06 47.855 55 47.855 62.145 51.06 62.145 55 58.939 62.145 55 62.145zm14.358-26.164c.09.068.172.143.26.212l-7.67 7.67a13.044 13.044 0 0 0-3.949-1.649V31.35c.1.013.2.018.3.032a23.685 23.685 0 0 1 11.059 4.599zm-17.651-4.6c.097-.014.196-.018.293-.031v10.864a13.044 13.044 0 0 0-3.949 1.649l-7.671-7.67c.089-.069.173-.145.263-.213a23.711 23.711 0 0 1 11.064-4.599zm-15.721 9.253c.05-.067.106-.128.157-.194l7.679 7.678a13.071 13.071 0 0 0-1.622 3.936H31.345c.015-.118.021-.236.037-.354a23.718 23.718 0 0 1 4.604-11.066zm-4.63 17.42h10.872a13.054 13.054 0 0 0 1.635 3.895l-7.67 7.67c-.069-.089-.145-.173-.213-.263a23.82 23.82 0 0 1-4.6-11.064c-.01-.078-.014-.159-.024-.238zm9.286 15.965c-.069-.052-.132-.11-.2-.163l7.677-7.677A13.048 13.048 0 0 0 52 67.787V78.65c-.1-.013-.2-.018-.3-.032a23.685 23.685 0 0 1-11.058-4.599zm17.65 4.6c-.097.014-.195.018-.292.031V67.786a13.027 13.027 0 0 0 3.881-1.608l7.678 7.678c-.069.053-.133.112-.203.164a23.703 23.703 0 0 1-11.064 4.599zm15.722-9.253c-.066.087-.139.168-.206.255l-7.671-7.671a13.054 13.054 0 0 0 1.635-3.895h10.872c-.011.082-.014.164-.026.245a23.718 23.718 0 0 1-4.604 11.066z"></path><path d="M104.909 52.054H94.733c-.025-.355-.043-.712-.078-1.063a39.606 39.606 0 0 0-8.787-21.206c-.204-.248-.419-.485-.629-.729l7.173-7.173a2.998 2.998 0 0 0 0-4.242 2.998 2.998 0 0 0-4.242 0l-7.168 7.168c-.265-.228-.525-.463-.795-.684-6.087-4.971-13.419-8.004-21.18-8.77-.333-.036-.684-.054-1.027-.08V5.145a3 3 0 1 0-6 0v10.132c-.337.026-.683.044-1.009.078a39.667 39.667 0 0 0-21.205 8.777c-.267.22-.524.453-.786.679l-7.17-7.17a2.998 2.998 0 0 0-4.242 0 2.998 2.998 0 0 0 0 4.242l7.173 7.173c-.211.245-.429.485-.635.735a39.66 39.66 0 0 0-8.77 21.18c-.037.352-.057.72-.084 1.082H5.091a3 3 0 1 0 0 6h10.184c.024.318.039.64.07.955a39.606 39.606 0 0 0 8.787 21.206c.22.268.453.525.679.787l-7.223 7.224a3 3 0 1 0 4.242 4.242l7.226-7.227c.246.211.487.429.736.634 6.087 4.971 13.419 8.004 21.18 8.77.335.036.684.054 1.027.081v10.24a3 3 0 1 0 6 0v-10.24c.337-.026.682-.044 1.009-.079a39.667 39.667 0 0 0 21.205-8.777c.248-.204.485-.42.729-.629l7.228 7.228c.586.586 1.354.879 2.121.879s1.535-.293 2.121-.878a3 3 0 0 0 0-4.243l-7.223-7.224c.229-.264.463-.523.685-.793a39.66 39.66 0 0 0 8.77-21.18c.034-.317.051-.649.076-.974h10.19a3 3 0 1 0-.001-6.001zm-16.234 6.357a33.669 33.669 0 0 1-7.443 17.995 35.066 35.066 0 0 1-4.819 4.82 33.689 33.689 0 0 1-18.02 7.451c-1.08.115-2.232.173-3.39.173h-.005c-1.154 0-2.314-.058-3.413-.175a33.59 33.59 0 0 1-17.996-7.448 34.643 34.643 0 0 1-4.817-4.817A33.619 33.619 0 0 1 21.15 55c0-1.175.058-2.316.175-3.411a33.669 33.669 0 0 1 7.443-17.995 35.066 35.066 0 0 1 4.819-4.82 33.689 33.689 0 0 1 18.02-7.451c1.079-.115 2.22-.173 3.393-.173s2.313.058 3.415.175a33.59 33.59 0 0 1 17.996 7.448 34.643 34.643 0 0 1 4.817 4.817A33.619 33.619 0 0 1 88.849 55a31.893 31.893 0 0 1-.174 3.411z"></path></svg>