<svg xmlns="http://www.w3.org/2000/svg" data-name="Layer 1" viewBox="0 0 100 125" x="0px" y="0px"><title>Artboard 69</title><path d="M33,30h8a4,4,0,0,0,0-8H33A12,12,0,0,0,21,34V71.81a10.23,10.23,0,0,0,3.84,8.12A9.75,9.75,0,0,0,37,79.8l8-6.49,7.78,6.32a10.26,10.26,0,0,0,5.2,2.3,9.83,9.83,0,0,0,11-9.74V58a4,4,0,0,0-8,0V72.18a1.82,1.82,0,0,1-3,1.41L47.19,64.78a3.47,3.47,0,0,0-4.37,0L32,73.59a1.82,1.82,0,0,1-3-1.41V34A4,4,0,0,1,33,30Z"/><path d="M65,18a4,4,0,0,0-4,4v6H55a4,4,0,0,0,0,8h6v6a4,4,0,0,0,8,0V36h6a4,4,0,0,0,0-8H69V22A4,4,0,0,0,65,18Z"/><text x="0" y="115" fill="#000000" font-size="5px" font-weight="bold" font-family="'Helvetica Neue', Helvetica, Arial-Unicode, Arial, Sans-serif">Created by Gregor Cresnar</text><text x="0" y="120" fill="#000000" font-size="5px" font-weight="bold" font-family="'Helvetica Neue', Helvetica, Arial-Unicode, Arial, Sans-serif">from the Noun Project</text></svg>